<?xml version="1.0" encoding="utf-8"?>
<!-- Generator: Adobe Illustrator 23.0.1, SVG Export Plug-In . SVG Version: 6.00 Build 0)  -->
<svg version="1.1" id="Layer_1" xmlns="http://www.w3.org/2000/svg" xmlns:xlink="http://www.w3.org/1999/xlink" x="0px" y="0px"
	 viewBox="0 0 600 600" style="enable-background:new 0 0 600 600;" xml:space="preserve">
<style type="text/css">
	.st0{fill:none;stroke:#000000;stroke-miterlimit:10;}
	.st1{fill:#FFFFFF;}
</style>
<polygon points="160,130.59 408.5,130.59 408.5,116.95 159.5,116.95 "/>
<path class="st0" d="M408.5,279.87"/>
<path class="st0" d="M297.07,281.88c-45.63-0.64-91.25-1.29-136.88-1.93c0-54.33,0-108.67,0-163c82.83,0.17,165.67,0.33,248.5,0.5
	v143.13"/>
<path class="st0" d="M408.69,281.2v2.25c-25.14-0.35-34.82-0.49-59.96-0.84"/>
<circle class="st1" cx="166.58" cy="124.37" r="3.08"/>
<circle class="st1" cx="175.41" cy="124.37" r="3.08"/>
<circle class="st1" cx="184.24" cy="124.37" r="3.08"/>
<path class="st0" d="M171.5,156.5l1,52h48c0-17.33,0-34.67,0-52C204.17,156.5,187.83,156.5,171.5,156.5z"/>
<path class="st0" d="M194.5,178.5c-0.7,0.81-0.92,1.58-1,2c-0.07,0.37-0.13,0.68,0,1c0.37,0.94,1.92,1,2,1"/>
<path class="st0" d="M191.5,186.5c0.52,0.33,1.57,0.89,3,1c2,0.15,3.48-0.68,4-1"/>
<path d="M186,194c-2.68,1.25-7.35,1.76-9,0c-0.53-0.57-0.71-1.33,0-6c0.89-5.86,1.36-8.87,3-13c0.31-0.78,1.28-3.16,3-6
	c3.51-5.79,5.49-5.99,6-6c0.54-0.01,1,0.13,2,0c1.37-0.18,1.82-0.62,3-1c0.83-0.27,3.14-1.04,5,0c1.34,0.75,2,2,2,2
	c0.38,0.65,1.04,1.52,2.1,1.84c0.91,0.27,1.37-0.1,2.33,0.14c1.16,0.28,1.86,1.14,2.57,2.03c0.84,1.06,1.52,2.25,2,4
	c0.64,2.33,0.98,4.84,1,9c0.02,5.6-0.58,5.64,0,8c0.62,2.54,1.74,4.22,1,5c-0.38,0.39-0.83,0.14-3,0c-2,0-4,0-6,0
	c-2.37,0-2.95,0.48-4,0c-0.26-0.12-1.42-0.68-2-2c-0.1-0.22-0.73-1.72,0-3c0.14-0.24,0.31-0.46,1-1c1.59-1.26,2.14-1.28,3-2
	c1.35-1.13,1.89-2.68,2-3c0.49-1.48,0.28-2.69,1-3c0.34-0.15,0.47,0.08,1,0c0.93-0.14,1.93-1.01,2-2c0.03-0.46-0.31-0.97-1-2
	c-0.63-0.95-0.86-1.01-1-1c-0.44,0.03-0.45,0.8-1,1c-0.61,0.22-1.39-0.46-2-1c-1.25-1.1-1.18-1.72-2-2c-0.75-0.26-0.9,0.23-2,0
	c-1.13-0.23-1.93-0.94-2-1c-0.62-0.55-0.58-0.87-1-1c-0.65-0.2-1.61,0.27-2,1c-0.48,0.9,0.29,1.48,0,3c-0.08,0.4-0.26,1.37-1,2
	c-1.09,0.94-2.29,0.21-3,1c-0.63,0.71-0.28,1.97,0,3c0.46,1.67,1.25,2.89,2,4c1.25,1.83,1.68,1.88,2,3c0.39,1.36,0.11,2.55,0,3
	c-0.22,0.9-0.39,1.62-1,2c-0.82,0.51-1.55-0.06-3,0C187.66,193.06,186.85,193.6,186,194z"/>
<path class="st0" d="M184,203c0.14-1.12,0.42-2.5,1-4c1.13-2.9,2.84-4.88,4-6"/>
<path class="st0" d="M203.5,206.5c0.21-1.66,0.12-3.03,0-4c-0.37-2.92-1.46-4.99-2-6c-0.7-1.3-1.44-2.31-2-3"/>
<path class="st0" d="M199.5,194.5c-0.31,0.5-1.57,2.39-4,3c-0.44,0.11-1.62,0.39-3,0c-2.78-0.79-3.86-3.62-4-4"/>
<line class="st0" x1="234" y1="163" x2="284" y2="164"/>
<line class="st0" x1="234" y1="174.5" x2="253" y2="174.5"/>
<line class="st0" x1="234" y1="186" x2="245" y2="186"/>
<line class="st0" x1="235.5" y1="200.5" x2="267.5" y2="200.5"/>
<path class="st0" d="M294.5,213.5c-3.3-4.23-6.53-7.1-9-9c-3.43-2.65-5.78-3.73-6-6c-0.24-2.49,2.27-5.65,5-6
	c2.85-0.36,4.28,2.56,11,8c5.01,4.06,7.52,6.09,10,6c2.51-0.09,5.68-3.39,12-10c2.61-2.72,5.59-5.1,8-8c1.74-2.09,3-3.92,5-4
	c2.45-0.09,3.95,2.53,5,2c0.61-0.31,0.97-1.64,0-6"/>
<path class="st0" d="M341.5,181.5c0.21,1.7,0.12,3.06,0,4c-0.14,1.07-0.34,1.74,0,2c0.52,0.4,1.56-0.73,3-1c1.17-0.22,2.57,0.13,5,2
	c3.49,2.69,5.7,5.89,7,8c2.24,3.62,3.27,6.38,5,11c2.58,6.89,2.4,8.69,2,10c-0.72,2.37-2.54,4.46-3,5c-1.91,2.2-2.85,2.1-4,4
	c-1.5,2.46-0.59,3.75-2,5c-1.9,1.69-5.54,1.12-6,0c-0.24-0.58,0.41-1.22,0-2c-0.33-0.62-0.95-0.6-1-1c-0.1-0.73,1.87-1.07,2-2
	c0.17-1.26-3.18-2.54-3-3c0.16-0.42,2.77,1.01,5,0c1.56-0.71,2.27-2.32,3-4c0.5-1.15,1.29-2.94,1-5c-0.31-2.23-1.72-3.57-3-5
	c-1.71-1.92-3.91-4.8-6-9"/>
<path class="st0" d="M315.5,213.5c1.03-0.31,2.51-0.88,4-2c2.64-1.98,3.33-4.2,4-4c0.87,0.26,0.27,4.21,0,9
	c-0.23,4.15-0.13,7.59,0,10"/>
<path class="st0" d="M352.5,164.5c-0.18,4.07-1.21,7.13-2,9c-1.05,2.47-1.88,4.42-4,6c-2.85,2.12-6.02,2.04-7,2
	c-1.51-0.06-4.17-0.16-6-2c-2.27-2.28-2.07-6.02-3-6c-0.3,0.01-0.31,0.39-1,1c-0.67,0.59-2.07,1.46-3,1c-0.57-0.28-0.74-0.95-1-2
	c-0.3-1.22-0.55-2.19,0-3c0.57-0.84,1.76-1.19,3-1"/>
<path class="st0" d="M351.5,169.5c1.26-0.36,2.5,0.1,3,1c0.36,0.65,0.3,1.44,0,2c-0.58,1.08-2.24,1.6-4,1"/>
<path d="M328.5,168.5c0.39-1.45,1.19-3.75,3-6c2.89-3.61,7.27-5.75,8-5c0.11,0.11,0.07,0.74,0,2c-0.09,1.61-0.16,1.77,0,2
	c0.69,0.96,3.46,0.16,4,0c1.83-0.53,2.01-1.1,3-1c0.28,0.03,0.66,0.12,3,2c0.92,0.74,1.75,1.37,3,2c0.81,0.41,1.22,0.61,1.5,0.5
	c0.92-0.37,0.21-2.63,0.5-6.5c0.25-3.35,1.02-5.03,0-6c-0.75-0.71-1.94-0.52-2-1c-0.08-0.64,2.03-1.12,2-2c-0.01-0.18-0.11-0.5-1-1
	c-1.4-0.79-2.54-0.78-4-1c-2.23-0.34-2.01-0.73-4-1c-1.41-0.19-2.42-0.12-4,0c-2.43,0.18-4.46,0.6-6,1c-2.37,0.62-3.61,0.96-5,2
	c-1.06,0.79-1.72,1.62-2,2c-1.5,2.03-1.78,4.15-2,6c-0.22,1.87,0,2.26,0,7c0,1,0,2,0,3c0,0.25,0.62,1.72,1.23,1.64
	c0.11-0.01,0.2-0.08,0.27-0.14"/>
<path class="st0" d="M339,166c-0.35,1.78-0.18,3.17,0,4c0.33,1.55,0.81,1.89,1,2c0.79,0.47,1.75,0.1,2,0"/>
<line class="st0" x1="352.5" y1="223.5" x2="355.5" y2="227.5"/>
<path class="st0" d="M352.5,209.5c0,4.33,0,8.67,0,13C352.5,218.17,352.5,213.83,352.5,209.5z"/>
<path class="st0" d="M284.5,192.5c-0.59-2.98-1.65-5.12-2.5-6.5c-0.57-0.93-2.01-3.3-3-3c-0.67,0.2-0.89,1.42-1,2
	c-0.32,1.72,0.31,2.84,0,3c-0.51,0.27-2.7-2.61-3-3c-0.36-0.48-0.95-1.29-2-2c-1.02-0.69-1.38-0.56-1.5-0.5
	c-0.46,0.23-0.54,1.02-0.5,1.5c0.1,1.16,1.01,2.06,2,3c0.53,0.51,1.05,0.92,1,1c-0.11,0.16-2.25-1.56-3-1c-0.43,0.32-0.31,1.33,0,2
	c0.6,1.33,2.09,1.75,2,2c-0.12,0.33-2.75-0.52-3,0c-0.2,0.4,1.22,1.2,1,2c-0.16,0.58-0.98,0.63-1,1c-0.03,0.6,2.16,1.13,3.5,1.5
	c1.44,0.39,3.5,1.02,6,2"/>
<polyline points="329,233 321,229 316,209 288,213 296,234 "/>
<polyline class="st0" points="295.5,229.5 287.5,233.5 335.5,237.5 352.5,232.5 "/>
<path class="st0" d="M320,227c9.33,0.67,18.67,1.33,28,2"/>
<polyline class="st0" points="287,234 287,243 334,246 351,241 351,232 "/>
<path class="st0" d="M334,237c0,3,0,6,0,9"/>
<path class="st0" d="M295.5,243.5c0.5,28.5,1,57,1.5,85.5c12.17,0.17,24.33,0.33,36.5,0.5c0-27.67,0-55.33,0-83"/>
<path class="st0" d="M349.5,241.5c-0.5,26.83-1,53.67-1.5,80.5c-4.5,2.5-9,5-13.5,7.5"/>
<path d="M328,342c-1.65-0.4-2.2,1.07-5,2c-4.94,1.65-9.62-0.8-10-1c-0.96-0.52-3.56-1.93-5-5c-1.86-3.99-0.91-8.95,2-12
	c0.66-0.69,3.01-3.16,6-3c2.89,0.15,4.11,2.63,6,2c1.43-0.48,1.18-2.05,3-4c2.16-2.31,5.07-2.83,6-3c0.94-0.17,5.95-0.95,9,2
	c2.86,2.76,0.79,5.71,4,9c1.88,1.93,3.24,1.59,5,4c0.56,0.77,1.7,2.55,2,5c0.32,2.6-0.69,2.82-1,7c-0.24,3.22,0,6,0,6
	c0.21,2.44,0.52,3.11,0,4c-0.63,1.06-2.09,1.38-5,2c-3.74,0.8-4.63,0.27-5,0c-0.75-0.56-1.28-1.58-1-2c0.49-0.74,3.02,0.94,4,0
	c0.88-0.84,0.26-3.48-1-4c-0.71-0.3-1.11,0.31-2,0c-0.98-0.35-0.81-1.22-2-2c-1.01-0.67-1.66-0.39-2-1c-0.41-0.74,0.37-1.5,0-2
	c-0.42-0.58-1.63,0.18-3,0C330.51,345.67,330.27,342.56,328,342z"/>
<path class="st0" d="M340.5,371.5c-1.07-3.88-1.8-6.72-1.93-7.33c-0.08-0.34-0.13-0.76-0.11-1.28c0.01-0.12,0.02-0.25,0.04-0.39
	c0.25-1.45,1.42-1.46,2-3c0.03-0.07,0.13-0.33,0.19-0.68c0.19-0.98-0.02-1.82-0.19-2.32"/>
<path class="st0" d="M330.5,367.5c1.96,9.32,1.69,18.97,11.54,23.68c5.15,2.47,10.86,0.88,12.76-4.75
	c2.14-6.35-1.98-12.21-2.27-12.6c-1.03-1.36-2.81-3.71-6.03-4.34c-2.83-0.55-5.15,0.54-6,1"/>
<path class="st0" d="M320.5,344.5c-0.48,5.27-3.25,7.32-5.24,11c-0.2,0.38-0.27,0.83-0.14,1.24c0.07,0.24,0.19,0.5,0.38,0.76
	c0.17,0.22,0.35,0.38,0.5,0.5c1.53,1.53,4.21,0.72,5.85,1.14c0.65,0.17,1.12,0.73,1.21,1.39c0.09,0.71,0.26,1.55,0.57,2.46
	c0.4,1.18,0.93,2.13,1.42,2.86c0.27,0.41,0.71,0.67,1.2,0.74c1.78,0.23,3.56,0.46,5.33,0.69"/>
<path d="M331,376c0.32-1.16,2.34-0.65,5.5-2.5c1.83-1.07,1.73-1.51,3-2c1.98-0.77,4.37-0.13,6,1c0.41,0.28,2.77,1.99,3,5
	c0.11,1.51-0.26,4.01-2,5c-0.8,0.46-1.87,0.3-4,0c-2.53-0.36-4.14-0.95-7-2c-1.04-0.38-1.5-0.65-2-1
	C333.33,379.38,330.6,377.42,331,376z"/>
<path class="st0" d="M331.5,375.5c-4.17,3.58-6.37,7.23-7.5,9.5c-1.11,2.23-2.49,5.05-3,9c-0.45,3.5,0.16,5.13-1,6
	c-1.7,1.27-5.23-0.56-8-2c-4.74-2.46-6.23-4.7-8-4c-0.76,0.3-0.6,0.76-3,4c-1.63,2.2-1.98,2.36-2,3c-0.04,1.23,1.2,2.23,6,5
	c4.6,2.66,6.97,4.01,10,5c3.37,1.11,5.1,1.65,7,1c2.05-0.7,2.9-2.23,5-5c1.52-2,3.81-4.81,7-8"/>
<path class="st0" d="M302.5,395.5c-1.05-5.34-1.65-7.04-2-7s-0.24,1.76-1,2c-1.01,0.32-2.53-2.28-3-2c-0.07,0.04-0.18,0.19,0,1
	c0.41,1.88,1.19,2.81,1,3c-0.35,0.35-3.35-2.53-4-2c-0.26,0.21-0.04,0.88,0,1c0.44,1.32,2.08,1.73,2,2c-0.1,0.35-2.89-0.32-3,0
	c-0.12,0.35,3.12,1.59,3,2c-0.13,0.43-3.73-0.6-4,0c-0.2,0.44,1.37,1.77,7,5"/>
<path class="st0" d="M354.5,378.5c1.02,1.23,2.35,3.06,3.5,5.5c2.01,4.26,2.31,7.94,2.5,10.5c0.39,5.33-0.45,9.97-1.5,13.5"/>
<path class="st0" d="M356,398c1.47,3.37,3.53,8.25,4.5,18.5c0.35,3.69,0.24,7.06,0,10"/>
<path class="st0" d="M326.5,407.5c0.48,8.08-0.7,11.97-2,14c-0.26,0.4-1.02,1.51-1,3c0.01,0.95,0.35,2.5,3,5
	c1.47,1.39,3.33,2.77,8,5c1.74,0.83,4.11,1.9,7,3"/>
<path class="st0" d="M371.5,421.5c-1.69-0.62-3.79,0.59-8,3c-2.6,1.49-3.51,2.35-6,4c-1.89,1.25-4.26,2.5-9,5
	c-6.65,3.51-9.98,5.26-12,6c-2.81,1.03-4.48,1.38-7,3c-1.96,1.26-3.95,2.54-5,5c-0.17,0.41-0.45,2.27-1,6c-0.18,1.19-0.22,1.58,0,2
	c0.96,1.8,5.32,1.19,7,1c5.97-0.69,12,0.77,18,1c13.12,0.5,15.79,0.94,20-1c4.26-1.97,5.64-4.32,6-5c0.89-1.65,0.93-2.98,1-9
	c0.07-6.05,0.1-9.1,0-10C374.95,427.69,374.36,422.55,371.5,421.5z"/>
<line class="st0" x1="337.5" y1="452.5" x2="315.5" y2="492.5"/>
<line class="st0" x1="344.5" y1="451.5" x2="342.5" y2="498.5"/>
<line class="st0" x1="361.5" y1="445.5" x2="375.5" y2="489.5"/>
<path class="st0" d="M323.5,429.5c-2.94,0.27-7.09,0.82-12,2c-5.99,1.44-7.36,2.46-8,3c-2.17,1.84-2.87,4.24-4,13
	c-1.13,8.75-3.55,17.29-5,26c-0.07,0.41-0.23,1.39-1,2c-1.21,0.95-3.21,0.45-5,0c-2.32-0.58-2.69-1.16-4-1c-1.24,0.15-2.79,0.89-3,2
	c-0.18,0.97,0.73,1.88,2,3c4.51,3.99,6.86,6.07,11,7c2.09,0.47,3.54,0.77,5,0c2.19-1.16,2.99-4.02,3-6c0.01-1.78-0.63-2.4-1-4
	c-0.57-2.46,0.21-4.14,2-9c2.21-6,2.68-7.9,5.05-13.34c1.54-3.54,2.32-4.98,3.95-5.66c1.45-0.6,2.59-0.2,6,0c2.52,0.15,4.6,0.08,6,0
	"/>
<path class="st0" d="M323.5,422.5c-3.16-0.15-5.56,0.49-7,1c-1.12,0.4-2.08,0.93-4,2c-4.23,2.35-4.78,3.39-5,4
	c-0.41,1.14-0.22,2.25,0,3"/>
<path class="st0" d="M307.5,461.5c0.3,2.01,0.67,3.7,1,5c0.85,3.34,1.27,5.01,2,6c0.54,0.73,1.23,1.42,1,2c-0.21,0.52-0.95,0.4-2,1
	c-1.03,0.59-0.89,1.03-2,2c-1.55,1.35-2.37,0.98-3,2c-0.52,0.85-0.63,2.24,0,3c0.4,0.48,1.14,0.75,6,0c2.33-0.36,4.66-0.75,7-1
	c1.45-0.15,2.47-0.22,3-1c0.15-0.21,0.34-0.61,0-3c-0.29-2.05-0.43-3.11-1-4c-0.71-1.11-1.29-1.15-2-2c-1.25-1.49-1.09-3.35-1-6
	c0.1-3-0.07-6,0-9c0.04-1.86,0.07-4.61,0-8"/>
<path class="st0" d="M318.5,472.5c-0.3,0.58-1.17,2.09-3,3c-2.84,1.41-5.62,0.18-6,0"/>
<path class="st0" d="M293.5,476.5c-0.04-0.83-0.02-1,0-1c0.08-0.01-0.06,1.84,1,3c0.69,0.75,1.63,0.93,2,1c2.59,0.49,4.74-1.73,5-2"
	/>
<line class="st0" x1="272" y1="411" x2="252" y2="463"/>
<line class="st0" x1="292.5" y1="417.5" x2="299.5" y2="491.5"/>
<path d="M300,416l-45-10l29-13l20,15c1-0.33,2-0.67,3-1c2.33,1.33,4.67,2.67,7,4C309.33,412.67,304.67,414.33,300,416z"/>
<polygon class="st0" points="274,369 287.49,394.89 312,385 299,362 "/>
<polygon class="st0" points="280.5,373.5 297.5,367.5 305.5,383.5 288.5,390.5 "/>
<line class="st0" x1="311.5" y1="389.5" x2="303.5" y2="392.5"/>
<line class="st0" x1="312.5" y1="392.5" x2="308.5" y2="394.5"/>
<line class="st0" x1="315.5" y1="394.5" x2="311.5" y2="396.5"/>
<path d="M330,377c-2.17-0.5-4.33-1-6.5-1.5l-13,6l2,3l8,7c2.17-3.83,4.33-7.67,6.5-11.5"/>
<path d="M435.5,269.5c0.12-0.56,0.3-1.35,0.51-2.28c0.34-1.49,0.37-1.6,0.49-1.72c0.62-0.61,1.48-0.31,4-1c1.19-0.33,1.79-0.5,2-1
	c0.37-0.9-0.65-2.53-2-3c-1.41-0.49-2.58,0.5-3,0c-0.39-0.47,0.59-1.42,1-3c0.22-0.86,0.21-1.63-1-6c-1.26-4.52-1.58-4.9-2-5
	c-1.04-0.24-1.44,1.53-4,3c-2.46,1.41-3.47,0.59-5,2c-1.63,1.51-1.32,3.23-2.5,3.5c-1.05,0.24-2.31-0.9-3-2
	c-1.07-1.69-0.39-3.82,1-8c1.65-4.95,2.47-5.69,3-6c1.55-0.92,2.27,0.01,4-1c1.88-1.1,1.58-2.42,4-4c0.93-0.61,1.93-1.26,3-1
	c0.81,0.2,1.1,0.78,2.22,1.02c0.84,0.18,1.5-0.02,1.78-0.02c3.24,0.06,6.38,2.66,8,4c1.14,0.95,3.33,2.79,5,6
	c0.74,1.42,2.54,4.87,2,9c-0.25,1.88-0.69,1.69-1,4c-0.4,2.94,0.21,4.04,0,7c-0.2,2.92-0.85,2.69-1,5c-0.32,4.94,2.43,9.13,3,10
	c2.19,3.34,4.49,4.5,4,6c-0.27,0.81-1.02,0.7-3,2c-3.16,2.07-3.08,3.54-5,4c-1.9,0.45-2.21-0.95-5-1c-3.28-0.06-5.15,1.85-6,1
	c-0.53-0.53,0.21-1.24,0-3c-0.31-2.54-2.09-2.97-2-5c0.06-1.52,1.08-1.66,1-3c-0.1-1.72-1.78-2.46-3-4c-1.02-1.3-1.97-3.51-1.5-7.5"
	/>
<path class="st0" d="M424.5,253.5c-0.63,1.83-1.5,4.4-2.5,7.5c-1.14,3.55-1.6,5.12-1,7c0.19,0.61,0.72,1.94,2,3
	c2.3,1.89,5.36,1.3,7,1c2.48-0.46,4.33-1.6,5.5-2.5"/>
<path class="st0" d="M422.5,254.5c-0.61,0.28-2.53,1.23-3,3c-0.15,0.57-0.06,0.87,0,1c0.32,0.76,1.5,1.15,3,1"/>
<path class="st0" d="M427.5,272.5c0.5,3.1,1.33,5.43,2,7c0.96,2.23,2.1,3.66,1.5,4.5c-0.58,0.81-2.43,0.61-3.5,0.5
	c-1.58-0.17-2.43-0.64-2.5-0.5c-0.13,0.26,2.17,2.41,5,3c4.79,1.01,8.91-2.92,9.5-3.5"/>
<path class="st0" d="M437.5,275.5c-0.17,1.28-0.27,3,0,5c0.22,1.6,0.61,2.95,1,4"/>
<path class="st0" d="M406.5,254.5c0.22-1.69,0.13-3.06,0-4c-0.15-1.05-0.27-1.08-2-6c-0.42-1.19-0.71-2.03-1-2
	c-0.54,0.05-0.49,2.95-1,3c-0.25,0.02-0.42-0.8-1-2c-0.12-0.25-0.85-1.74-2-3c-1.02-1.11-2.62-2.31-3-2c-0.29,0.24,0.19,1.27,1,3
	c0.86,1.83,2.04,3.98,2,4s-1.01-2.4-3-3c-0.22-0.07-0.8-0.24-1,0c-0.55,0.66,2.22,3.8,2,4c-0.09,0.08-0.79-0.72-2-1
	c-0.35-0.08-0.86-0.2-1,0c-0.37,0.53,2.15,2.84,2,3c-0.11,0.12-1.56-1.31-2-1c-0.22,0.16-0.1,0.7,0,1c0.26,0.73,0.77,0.89,2,2
	c0.5,0.45,0.75,0.68,1,1c0.62,0.8,0.66,1.44,1,2c0.82,1.35,1.94,2.02,2.24,2.22c2.85,2.01,4.71,15.7,5.16,18.29
	c0.82,4.75,3.56,11.1,12.1,17.99"/>
<path class="st0" d="M425.5,284.5c-2.54-2.05-5.33-4.68-8-8c-7.18-8.91-9.88-18.25-11-24"/>
<path class="st0" d="M425.5,284.5c-2.1,1.82-3.75,3.56-5,5c0,0-2.81,3.28-5,7c-1.79,3.04-1.22,3.07-3,6c-1.63,2.68-2.75,4.54-5,6
	c-1.64,1.06-3.09,1.37-6,2c-3.43,0.74-5.63,1.21-7,0c-0.54-0.47-0.35-0.67-2-3c-1.02-1.43-1.45-2.06-2-2c-0.45,0.05-0.86,0.54-1,1
	c-0.15,0.5,0.12,0.69,0,1c-0.29,0.75-2.16,0.14-4,1c-0.4,0.19-1.83,0.85-2,2c-0.2,1.37,1.49,2.62,2,3c0.71,0.52,1.33,0.76,2,1
	c1.96,0.71,2.91,0.56,5,1c0.78,0.16,0.51,0.18,3,1c5.02,1.66,6.94,1.87,7.75,1.93c0.65,0.05,1.35,0.14,2.25,0.07
	c3.53-0.3,6.1-1.85,8-3c3.21-1.94,4.19-3.48,8-7c1.56-1.44,3.93-3.56,7-6"/>
<path class="st0" d="M425.5,305.5c-0.85,2.84-1.52,5.23-2,7c-0.99,3.64-1.5,5.52-2,8c-0.5,2.51-0.23,1.78-1,6
	c-0.04,0.24-0.36,2.49-1,7c-0.21,1.47-0.31,2.23,0,3c0.66,1.66,2.43,2.38,4,3c1.33,0.52,3.73,1.24,7,1"/>
<path class="st0" d="M445.5,287.5c1.08,5.09,1.67,9.23,2,12c0.57,4.78,0.32,4.46,1,11c0.38,3.66,0.15,7.42,1,11
	c0.32,1.36,0.84,3.19,0,5c-0.23,0.5-0.73,1.34-3,3c-2.29,1.67-2.97,1.69-5,3c-2.2,1.42-1.88,1.71-6,5c-1.31,1.04-2.41,1.92-4,3
	c-1.12,0.76-2.87,1.88-5,3c-2.73,1.43-3.15,1.31-7,3c-1.24,0.55-3.83,2.03-9,5c-1.11,0.64-2.49,1.46-3,3c-0.43,1.29-0.1,2.64,0,3
	c0.1,0.38,0.36,1.32,1,2c1.24,1.32,3.21,0.89,6,1c2.12,0.08,1.67,0.35,6,1c5.34,0.8,9.66,0.93,12,1c0.03,0,0.01,0,8,0
	c5.33,0,8,0,8,0c2.99,0.22,3.72,0.53,5,0c1.78-0.74,2.61-2.3,4-5c1.38-2.68,2.7-5.24,3-9c0.27-3.4-0.44-5.98-1-8
	c-0.42-1.53-1.16-4.12-3-7c-2.22-3.47-4.97-5.68-7-7"/>
<path class="st0" d="M418,336c-3.62-0.21-6.68-0.13-9,0c-4.63,0.27-7.3,0.84-8,1c-2.94,0.65-4.41,0.98-6,2c-2.37,1.52-3.54,3.51-5,6
	c-1.59,2.71-2.35,4.99-3,7c-1.13,3.49-1.57,6.26-2,9c-0.42,2.71-0.24,2.42-1,9c-0.58,5.01-0.87,7.51-1,8c-0.83,3.1-1.89,4.9-1,7
	c0.19,0.45,0.86,1.84,2,2c0.91,0.13,1.86-0.55,3-2c2.35-2.98,2.86-5.88,4-10c1.26-4.56,1.9-6.84,3-9c2.01-3.94,3.54-4.73,4-8
	c0.18-1.25,0.16-2.56,1-3c0.91-0.47,1.94,0.54,4,1c1.65,0.37,3.09,0.19,4,0"/>
<path class="st0" d="M389.5,345.5c-1.33,1.37-3.13,3.51-4.5,6.5c-0.9,1.96-0.93,2.78-2,7c-1.65,6.51-2.09,6.53-3.5,12.5
	c-1.63,6.9-0.79,5.79-1.5,7.5c-0.13,0.32-0.74,1.76-0.5,3.5c0.05,0.4,0.24,1.76,1,2c0.32,0.1,0.59-0.04,1.5-0.5
	c0.98-0.49,1.7-0.85,2-1"/>
<path class="st0" d="M377.5,380.5c-2.07,0.54-3.79,0.83-5,1c-1.94,0.27-2.86,0.27-4,1c-1.04,0.67-2.29,1.97-2,3
	c0.05,0.16,0.15,0.37,1,1c1.34,0.99,2.38,1.76,4,2c0.47,0.07,1.15,0.12,2,0"/>
<path class="st0" d="M381.5,384.5c-0.97,0.48-2.35,1.16-4,2c-1.71,0.87-2.38,1.22-3,2c-0.19,0.24-1.52,1.91-1,3
	c0.44,0.94,1.96,0.83,5,1c6.57,0.37,8.03,1.34,10,0c0.3-0.21,1.98-1.34,2-3c0.02-1.63-1.57-3.28-4-4"/>
<line class="st0" x1="416" y1="353" x2="396" y2="396"/>
<line class="st0" x1="430.5" y1="355.5" x2="417.5" y2="401.5"/>
<line class="st0" x1="444.5" y1="355.5" x2="460.5" y2="394.5"/>
<path class="st0" d="M386.5,308.5c-2-3.33-4-6.67-6-10l2-2c2.33,3.67,4.67,7.33,7,11"/>
<path d="M416,295c-3.33-0.33-6.67-0.67-10-1c-6.33,3-12.67,6-19,9c0.67,1.33,1.33,2.67,2,4c0.4-0.2,1.05-0.9,1.5-1.41
	c0.25-0.29,0.71-0.26,0.92,0.07c0.46,0.7,1.17,1.78,1.57,2.34c0.45,0.62,0.87,1.2,1.23,1.73c0.13,0.21,0.71,1.05,1.77,1.27
	c0.42,0.09,0.78,0.05,1.04,0c1.63-0.2,3.27-0.39,4.9-0.59l4.57-1.34l3.29-2.57l2.29-3.3C413.39,300.46,414.69,297.73,416,295z"/>
<path d="M382,306l-28,13l54,6c5-3,10-6,15-9c0.67-3.33,1.33-6.67,2-10c-3.33,3-6.67,6-10,9c-2,1-4,2-6,3c-0.67,0.36-2.09,1-4,1
	c-0.38,0-1.06-0.07-4-1c-1.26-0.4-2.3-0.75-3-1c-2-0.67-4-1.33-6-2c-1.33,0-2.67,0-4,0c-0.33-0.33-0.67-0.67-1-1
	c-0.67-0.33-1.33-0.67-2-1c-0.67-1-1.33-2-2-3h1l1-1l0.5-0.5l0.5-0.5l-1.6-3.01L382,306z"/>
<path d="M386,325"/>
<path d="M391,306"/>
<path d="M391,308"/>
<line class="st0" x1="371.98" y1="321.4" x2="355" y2="372"/>
<path class="st0" d="M392.5,323.5c5.33,24,10.67,48,16,72"/>
</svg>
