<?xml version="1.0" encoding="utf-8"?>
<!-- Generator: Adobe Illustrator 23.0.1, SVG Export Plug-In . SVG Version: 6.00 Build 0)  -->
<svg version="1.1" id="Layer_1" xmlns="http://www.w3.org/2000/svg" xmlns:xlink="http://www.w3.org/1999/xlink" x="0px" y="0px"
	 viewBox="0 0 600 600" style="enable-background:new 0 0 600 600;" xml:space="preserve">
<style type="text/css">
	.st0{fill:none;stroke:#000000;stroke-miterlimit:10;}
	.st1{fill:none;stroke:#FFFFFF;stroke-miterlimit:10;}
	.st2{stroke:#000000;stroke-miterlimit:10;}
</style>
<path d="M342,103c-2.37-0.14-2.91,2.46-6,3c-2.37,0.42-5.86-0.03-7-2c-1.8-3.1,2.26-9.4,7-12c3.57-1.96,7-2,7-2
	c2.69-0.03,3.81,0.8,5,0c2-1.34,0.09-4.7,2-7c2.47-2.97,9.13-3.48,13,0c3.21,2.89,3.03,7.22,3,8c-0.01,0.34-0.33,6.05-4,8
	c-2.01,1.07-3.87,0.39-5,2c-0.67,0.96-0.29,1.58-1,3c-0.18,0.37-1.16,2.25-3,3c-2.08,0.84-4.27-0.18-6-1
	C343.8,104.49,343.78,103.1,342,103z"/>
<path class="st0" d="M333,105c0.08,2.61-0.42,4.58-1,6c-0.59,1.45-1.36,2.63-1,3c0.56,0.57,3.14-1.7,4-1c0.66,0.54-0.65,2.09,0,4
	c0.42,1.22,1.4,1.9,3,3c1.64,1.13,2.61,1.8,4,2c2.66,0.39,5.45-1.13,7-3c1.79-2.16,1.03-3.69,3-5c1.02-0.68,2.03-0.8,3-2
	c0.35-0.43,1.27-1.35,1-2c-0.24-0.6-1.2-0.37-2-1c-0.85-0.67-1.02-1.91-1-3"/>
<path class="st0" d="M355.5,112.5c0.42,0.08,1.27,0.29,2,1c0.63,0.61,1.55,1.96,1,3c-0.49,0.93-1.82,0.99-2,1
	c-1.41,0.06-2.76-0.94-3-2c-0.09-0.39-0.04-0.73,0-1c0.15-1,0.7-1.68,1-2"/>
<path class="st0" d="M342,123c-2.79,2.08-4.4,3.85-4,5c0.41,1.16,2.56,0.86,5,2c3.65,1.71,5.29,5.4,6,7c2.45,5.53,0.12,11.29-3,19
	c-1.49,3.68-4.66,8.45-11,18c-2.52,3.79-4.43,6.5-8,8c-1.14,0.48-1.6,0.47-8,1c-8.48,0.7-10.71,0.96-14,0c-2.15-0.62-5.09-1.87-5-3
	c0.08-1,2.55-1.85,3-2c1.69-0.58,2.79-0.4,3-1c0.1-0.3-0.11-0.53-1-2c-1.07-1.77-1.05-1.92-1-2c0.34-0.61,2.87,0.7,6,1
	c2.21,0.21,3.81-0.19,7-1c4.87-1.23,7.3-1.85,9-4c0.73-0.92,0.99-1.69,2-6c1.16-4.95,1.74-7.42,2-9c0.64-3.96,2.58-11.1,8-25"/>
<path class="st0" d="M337.5,128.5c-2.24,5.2-4.4,9.23-6,12c-2.12,3.67-2.72,4.23-4,7c-2.72,5.89-1.76,7.22-4,10
	c-3.13,3.88-6.78,3.52-7,6c-0.2,2.31,2.75,5.09,5,5c0.54-0.02,0.73-0.2,3-1c1.25-0.44,2.29-0.78,3-1"/>
<path d="M322,171c0.15-0.75-1.4-1.63-2-2c-1.75-1.08-4.1-3.15-6.5-7.5c-9.33,0.33-18.67,0.67-28,1l-16-16l3,15
	c20.06,16.72,26.13,19.59,27.5,18.5c0.28-0.23,1.25-1.32,3-2c1.68-0.65,2.69-0.37,3-1c0.58-1.18-2.4-3.49-2-4
	c0.26-0.34,1.58,0.68,4,1c0.6,0.08,0.61,0.02,3,0c3.68-0.03,3.31,0.11,4,0c1.91-0.3,1.67-0.9,5-2
	C321.22,171.6,321.91,171.46,322,171z"/>
<line class="st1" x1="286" y1="164" x2="295" y2="175"/>
<path class="st0" d="M351,119c1.46,0.7,3.44,1.8,5.5,3.5c1.58,1.3,3.66,3.33,6,7c3.5,5.5,4.97,10.61,5.5,12.5
	c4.01,14.35,7.51,33.34,8,36"/>
<path class="st0" d="M339.5,167.5c0.33,3.33,0.67,6.67,1,10"/>
<path d="M341.5,177.5c3.79-0.29,3.81,0.98,10,2c5.48,0.91,15.03,2.49,21-2c0.79-0.6,1.39-1.2,2-1c2.14,0.68,1.9,10.22-1,18
	c-0.88,2.37-4.09,10.72-12,15c-4.01,2.18-4.6,0.79-9.5,3.5c-2.45,1.36-6.03,3.77-10.5,3.5c-0.12-0.01-0.21-0.01-0.33-0.03
	c-0.96-0.13-2.91-0.9-7.67-5.97c-5.34-5.69-4.61-6.54-13-19c-1.49-2.2-2.43-3.55-2-5c0.72-2.42,4.42-2.27,12-5
	C337.14,179.11,337.68,177.79,341.5,177.5z"/>
<path class="st0" d="M319.5,186.5c-13.61,0.51-19.87,5.71-22.5,8.5c-1.97,2.09-3.66,5.39-7,12c-2.15,4.26-3.79,8.03-9,19
	c-0.47,0.98-1.78,3.72-4,7c-2.15,3.18-3.23,4.77-5,6c-4.65,3.23-9.47,1.33-10,3c-0.52,1.64,3.44,5.64,8,6c5.27,0.42,10.09-4.11,11-3
	c0.4,0.49-0.43,1.5,0,2c0.78,0.9,4.51,0.22,6-2c1.75-2.59-0.98-5.19-0.5-9.5c0.45-4.07,3.24-4.92,7-10c6.73-9.09,4.28-15.08,9-17
	c0.84-0.34,1.41-0.35,13,3c7.32,2.11,10.01,2.96,14,3c3.44,0.04,6.24-0.54,8-1"/>
<path class="st0" d="M302.5,208.5c-0.55,4.31-1.36,7.7-2,10c-1.07,3.85-1.77,4.99-2,8c-0.27,3.47,0.5,4.09,0,7
	c-0.63,3.68-2.46,6.26-3,7c-3.62,4.97-8.25,5.34-8,7c0.24,1.63,5.02,3.2,9,2c3.63-1.1,6.51-4.48,7-4c0.18,0.17-0.22,0.62,0,1
	c0.5,0.86,3.74,0.66,5-1c0.61-0.8,0.38-1.45,0-5c-0.58-5.39-0.4-7.17-2-9c-0.66-0.75-0.78-0.55-1-1c-1.16-2.31,2.78-5.95,9-14
	c1.38-1.79,2.45-3.24,3-4"/>
<path class="st2" d="M269.5,240.5c4.98-0.8,5.01-0.19,7-1c1.17-0.48,1.33-0.76,7-4c1.46-0.83,2.46-1.4,3-1c0.61,0.45-0.01,1.52,0,4
	c0.01,3.12,1.01,4.47,0,6c-0.3,0.46-0.64,0.72-1,1c-1.34,1.04-3.39,1.67-4,1c-0.5-0.55,0.38-1.52,0-2c-0.85-1.07-5.6,3.3-11,3
	c-4.38-0.25-8.34-3.52-8-5C262.71,241.56,264.98,241.23,269.5,240.5z"/>
<path d="M292,244c3.41-1.74,4.76-0.45,7-2c1.95-1.35,2.77-3.6,4-7c1.09-3.01,1.22-4.94,2-5c0.86-0.07,1.7,2.19,2,3
	c0.87,2.33,0.37,3.03,1,6c0.65,3.08,1.43,3.55,1,5c-0.44,1.47-1.73,2.6-3,3c-0.45,0.14-1.32,0.41-2,0c-0.54-0.33-0.55-0.84-1-1
	c-0.72-0.26-1.67,0.69-2,1c0,0-2.59,2.44-7,3c-2.54,0.32-5.71-0.58-6-2C287.65,246.26,291.71,244.15,292,244z"/>
<path d="M193,321c-1.86,1.41-5.59-0.76-6-1c-2.45-1.43-4.53-4.06-5-7c-0.21-1.33,0.14-1.22,0-5c-0.1-2.72-0.3-3.09,0-4
	c0.67-2.06,2.33-2.12,4-4c2.79-3.14,0.78-5.96,3-8c2.25-2.07,4.74,0.44,10-1c3.71-1.02,3.49-2.55,9-5c3.98-1.77,6.32-2.81,9-2
	c3.08,0.93,5.46,3.96,6,7c0.89,4.95-3.22,9.16-6,12c-2.21,2.27-3.15,3.6-5,4c-2.49,0.54-4.34-0.8-6.5,0.5c-1.18,0.71-0.83,1.24-2,2
	c-2.59,1.69-4.98-0.44-7,1c-0.91,0.65-1.27,2.1-2,5C193.57,319.21,193.98,320.26,193,321z"/>
<path class="st0" d="M214.5,304.5c0.78,1.96,1.78,5.07,2,9c0.22,3.87,0.42,7.57-2,11c-2.7,3.83-6.96,4.78-8,5
	c-1.63,0.34-5.69,1.18-8-1c-1.61-1.52-1.53-3.73-3-4c-1.2-0.22-1.84,1.15-3,1c-0.87-0.11-1.99-1.07-3-5"/>
<path class="st0" d="M205.5,315.5c-0.82,0.82-0.82,2.18,0,3s2.18,0.82,3,0"/>
<path class="st0" d="M199.5,329.5c0,2.33,0,4.67,0,7"/>
<path class="st0" d="M209.5,328.5c0,2.33,0,4.67,0,7"/>
<path class="st0" d="M182.12,364.78c1.42,0.45,2.8,0.64,3.38,0.72c2.95,0.4,4.76-0.3,6,1c1.01,1.06,0.43,2.18,1,4
	c0.97,3.08,4.13,4.61,7,6c3.05,1.47,5.7,1.65,11,2c2.4,0.16,4.23,0.11,5-1c0.31-0.44,0.22-0.74,1-3c0.59-1.73,0.79-2,1-2
	c0.42-0.01,0.89,1.06,1,2c0.14,1.17-0.3,1.73,0,2c0.29,0.26,1.19-0.16,3-1c1.78-0.83,2.68-1.24,3-1c0.43,0.33,0.23,1.37,0,2
	c-0.93,2.6-4.16,3.65-4,4c0.13,0.3,2.42-0.75,3,0c0.21,0.27,0.14,0.72,0,1c-0.44,0.88-2.01,0.97-2,1c0.01,0.03,1.54-0.54,2,0
	c0.22,0.25,0.15,0.7,0,1c-0.45,0.88-2.01,0.95-2,1c0.01,0.05,1.67-0.47,2,0c0.31,0.45-0.7,1.67-1,2c-2.09,2.28-6.72,1.58-11,1
	c-5.65-0.76-11.33-1.33-17-2c-8.19-0.97-10.5-0.89-12-3c-1.12-1.58-1.1-3.74-1-8c0.09-3.82,0.58-6.94,1-9"/>
<path class="st0" d="M234.5,365.5c0.18-0.79-4.9-1.15-7-5c-1.03-1.88-0.77-3.49-2-4c-0.85-0.35-1.18,0.38-4,1
	c-1.76,0.39-2.57,0.31-3,1c-0.38,0.61-0.17,1.37,0,2c0.43,1.58,1.51,2.59,2,3c1.15,0.96,2.59,1.55,7,2
	C230.39,365.8,234.34,366.2,234.5,365.5z"/>
<path d="M204.5,334.5c-4.53,0.24-7.99,1.99-10,3c-1.89,0.95-4.51,2.31-7,5c-0.97,1.04-1.29,1.61-5.5,10.5
	c-2.36,4.97-3.51,7.5-2.5,9.5c0.5,0.98,1.26,1.5,2,2c3.76,2.55,7.06,0.46,9.5,2.5c1.56,1.31,0.38,2.34,2,5c2.64,4.34,8.39,5.98,11,6
	c1.14,0.01,2.08-0.28,4,0c1,0.15,1.63,0.36,2,0c0.55-0.53-0.29-1.5,0-3c0.16-0.81,0.47-0.86,2-3c0.31-0.43,0.87-1.29,2-3
	c1.88-2.86,1.77-2.81,2-3c2.21-1.79,5.79-0.3,6-1c0.14-0.47-1.53-0.97-3-3c-0.44-0.62-1.48-2.03-1-3c0.35-0.71,1.31-0.87,2-1
	c4.06-0.77,6.68-1.27,7.5-2.5c0.37-0.55,0.63-1.64-2.5-7.5c-2.23-4.17-3.34-6.26-4.5-7.5C214.55,334.11,205.43,334.45,204.5,334.5z"
	/>
<polyline class="st0" points="210,386.57 210,400 236,400 246,389 245,366 217,365 210,375 210,378.75 "/>
<line class="st0" x1="233" y1="366" x2="227.5" y2="376.5"/>
<line class="st0" x1="227.5" y1="365.5" x2="222.5" y2="374.5"/>
<path class="st0" d="M235.5,399.5c0-7.67,0-15.33,0-23l9-10"/>
<path class="st0" d="M187.5,404.5c-1.12,3.91-2.6,10.17-3,18c-0.6,11.71,1.85,13.74-0.5,19.5c-2.89,7.09-10.65,13.26-15,17
	c-3.42,2.94-6.4,5.29-6,8c0.14,0.94,1.09,2.31,3,5c1.4,1.98,2.13,3,3,4c2.29,2.61,7.87,7.6,11,6c1.59-0.81,2.38-3.25,2-5
	c-0.28-1.3-1.11-1.78-2-3c0,0-2.05-2.81-2-7c0.01-1.13,0.33-3.96,11-13c5.52-4.68,6.19-4.56,8-7c2.22-2.99,2.55-4.96,5-11
	c1.05-2.59,2.69-6.41,5-11"/>
<path class="st0" d="M204,417c2.72,7.28,6.25,12.01,9,15c4.88,5.32,8.16,6.08,12,12c1.85,2.85,1.69,3.77,2.48,6.22
	c0.69,2.15,1.25,3.22,2.52,5.78c3.09,6.24,1.79,6.41,4.5,11.5c1.49,2.8,2.63,4.14,2.5,6.5c-0.08,1.56-0.68,1.75-1,4
	c-0.25,1.74-0.8,5.67,1,7c0.99,0.73,2.08,0.22,4,0c6.55-0.76,8.82,3.45,14,2c0.58-0.16,3.57-1,4-3c0.38-1.79-1.51-3.57-2-4
	c-2.69-2.35-5.31-1.02-8-3c-1.69-1.24-2.38-3.02-3-5c-3.54-11.28-3.1-23.76-8-35c-1.77-4.05-1.63-1.97-10-16
	c-3.49-5.84-6.21-10.72-8-14"/>
<path class="st0" d="M168.5,459.5c0.02,0.72,0.19,3.08,2,5c1.95,2.07,5.04,2.82,8,2"/>
<path class="st0" d="M236.5,474.5c1.11,0.2,2.88,0.39,5,0c2.32-0.43,4.02-1.36,5-2"/>
<path class="st0" d="M389,340c-1.77,1.59-3.37,2.22-4.5,2.5c-1.73,0.43-2.7,0.14-4,1c-0.17,0.12-2.16,1.46-2,3
	c0.19,1.86,3.28,1.82,4,4c0.58,1.75-1.11,2.65-1.5,5.5c-0.33,2.44,0.43,5.27,2,7c2.47,2.72,7.39,3.22,12,1"/>
<path class="st0" d="M397,369c-1.02-0.28-3.3-0.76-6,0c-0.47,0.13-2.86,0.84-5,3c-1,1.01-2.74,3.14-4,10c-1.14,6.23,0.02,5.97-1,10
	c-0.87,3.46-1.55,2.93-6,12c-2.07,4.21-2.47,5.44-4,6c-2.85,1.04-7.15-1.16-8-4c-0.3-1-0.19-2.12,0-4c0.21-2.12,0.63-3.08,0-4
	c-0.42-0.62-1.26-1.13-2-1c-1.1,0.2-1.02,1.64-2,2c-1.51,0.56-2.8-2.42-6-3c-1.65-0.3-3.65,0.07-4,1c-0.49,1.31,2.42,3.47,2,4
	c-0.26,0.33-1.4-0.5-2,0c-0.45,0.38-0.46,1.41,0,2c0.63,0.81,1.95,0.6,2,1c0.04,0.33-0.89,0.47-1,1c-0.1,0.48,0.52,1.01,2,2
	c2.36,1.58,3.55,2.37,4,2c0.5-0.42-0.28-1.84,0-2c0.45-0.26,2.58,3.28,5,6c2.11,2.37,6.03,6.78,11,7c4.1,0.19,7.21-2.55,10-5
	c4.65-4.09,6.65-8.75,8-12c2.01-4.84,4.43-10.68,3-18c-1.23-6.28-4.72-10.65-7-13"/>
<path class="st0" d="M379.5,418.5c-0.68,2.86-0.92,5.26-1,7c-0.13,2.87,0.15,4.14,1,5c0.67,0.67,1.49,0.89,2,1c6.11,1.32,17-1,17-1
	c7.81-1.59,9.64-1.73,10.55-2.49c0.09-0.08,0.3-0.24,0.45-0.51c0.77-1.36-0.69-3.51-1-4c-0.68-1.07-1.13-4.73-2-12
	c-0.91-7.64-1.58-14.38-2-19"/>
<path class="st0" d="M411.5,395.5c0.68,1.61,1.53,4,2,7c0.44,2.82,0.82,5.21,0,8c-1.04,3.53-3.44,5.8-5,7"/>
<path d="M394.5,333.5c3.67-1.55,7.2-0.05,8.5,0.5c4.75,2.02,6.65,6.2,7,7c0.06,0.14,1.54,3.65,1,7c-0.33,2.03-0.49,3.05-1,4
	c-0.27,0.51-0.57,0.93-0.5,1.5c0.12,0.97,1.38,1.17,2,2c0.53,0.7,2.6,3.67,2,7c-0.5,2.76-2.4,3.37-2,5c0.39,1.59,2.26,1.29,4,3
	c3.14,3.09-0.02,6.99,3,13c1.1,2.18,2.26,3.16,2,5c-0.31,2.17-2.3,3.52-3,4c-3.28,2.23-8.57,2.54-11,0c-1.46-1.52-0.48-2.59-2-6
	c-1.68-3.77-3.65-4.21-5-7c-1.93-3.99,1.82-6.57,0-10c-1.19-2.23-2.72-1.61-4-4c-1.65-3.08-0.59-6.9,0-9c0.73-2.61,2.02-4.02,2-7
	c-0.01-1.41-0.29-2.1-0.5-2.5c-0.83-1.57-2.19-1.69-4-3c-0.98-0.71-3.3-2.38-3.5-4.5C389.25,336.94,392.16,334.49,394.5,333.5z"/>
<path class="st0" d="M378.5,429.5c-1.34,4.98-2.81,9.02-4,12c-2.15,5.35-3.22,8.03-5,11c-2.13,3.55-3.26,4.44-3,6
	c0.39,2.36,3.58,3.99,11,6c13.22,3.58,19.82,5.37,28,3c3.36-0.97,11.38-3.3,13-9c1.05-3.68-1.25-6.36-4-13
	c-1.74-4.2-3.89-10.54-5-19"/>
<path class="st0" d="M379.5,466.5c-0.49,2.9-1.18,7.03-2,12c-1.3,7.89-1.96,11.85-2,13c-0.27,7.04,1.14,14.45,2,19
	c0.93,4.88,1.83,8.06,0,10c-1.17,1.24-2.36,0.79-6,2c-2.54,0.84-8.16,3.12-8,5c0.17,1.99,6.76,2.84,8,3c2.77,0.36,12.2,1.58,15-3
	c1.01-1.65,0.13-2.38,0-8c-0.13-5.55,0.69-6.5,1-14c0.29-6.9-0.41-6.08,0-9c1.56-11.18,10.5-14.52,11-26c0.04-0.88,0.02-1.59,0-2"/>
<path class="st0" d="M405.5,468.5c-0.55,3.82-1.21,8.19-2,13c-0.85,5.18-1.07,6.09-1,8c0.15,4.38,1.47,4.9,4,13
	c1.99,6.35,2.58,10.52,5,11c1.14,0.23,1.85-0.54,3,0c1.56,0.73,2.4,3.14,2,5c-0.26,1.21-1.03,2.1-6,5c-8.01,4.68-9.79,4.56-11,4
	c-0.4-0.18-1.8-0.83-2-2c-0.49-2.95,7.49-4.59,8-9c0.23-2.01-1.32-2.57-4-7c-2.27-3.76-2.19-5.09-5-12c-1.09-2.69-2.73-6.49-5-11"/>
<path class="st0" d="M412.5,513.5c-0.08,0.5-0.69,4.03-4,6c-2.67,1.59-5.34,1.13-6,1"/>
<path class="st0" d="M369.5,523.5c0.97,0.62,3.96,2.36,8,2c5.4-0.48,8.48-4.33,9-5"/>
<polygon class="st0" points="233,259 268,257 268,297 233,298 "/>
<polygon class="st0" points="236.5,319.5 267.5,317.5 267.5,355.5 235.5,356.5 "/>
<polyline class="st0" points="246,386.5 272.5,386.5 273.5,421.5 235.5,423.5 235.5,400 "/>
<polyline class="st0" points="251.5,267.5 248.5,277.5 248.5,290.5 "/>
<line class="st0" x1="239.5" y1="277.5" x2="249" y2="277.5"/>
<line class="st0" x1="248.5" y1="277.5" x2="256.5" y2="276.5"/>
<polyline class="st0" points="244.5,267.5 244.5,264.5 250.5,264.5 250.5,267.5 252.5,267.5 256.5,276.5 256.5,287.5 248.5,292.5 
	238.5,292.5 238.5,277.5 243.5,267.5 251.5,267.5 "/>
<path class="st0" d="M246,325c-1.51-0.32-3.99-0.3-5,1c-0.82,1.07-0.43,2.72,0,4c1.86,5.52,10.1,20.84,16,19
	c2.71-0.84,4.07-5.04,4-8c-0.07-2.87-1.49-4.72-4-8c0,0-3.65-4.77-9.5-7.5C247.29,325.4,246.75,325.16,246,325z"/>
<path class="st0" d="M246,331c0.31-0.49,0.93-1.32,2-2c1.23-0.78,2.41-0.95,3-1"/>
<path class="st0" d="M251,332c0.54-0.07,1.22-0.1,2,0c1.34,0.17,2.36,0.64,3,1"/>
<path class="st0" d="M256,338c0.07-0.1,0.77-1,2-1c0.12,0,1.27,0.02,2,1"/>
<path class="st0" d="M250,400c-2.21-0.01-3.88,2.98-5,5c-1.17,2.1-2.63,4.72-2,8c0.15,0.78,0.67,3.49,3,5c1.6,1.04,3.29,1.02,4,1
	c3.49-0.08,4.36-2.36,7-2c2.08,0.28,2.1,1.77,4,2c2.84,0.34,5.7-2.61,7-5c1.52-2.8,1.97-6.81,0-10c-1.67-2.7-5.11-4.87-7-4
	c-0.95,0.44-0.77,1.29-2,2c-1.81,1.04-4.1,0.29-5,0C251.48,401.18,251.38,400,250,400z"/>
<path class="st0" d="M252,401c0.47-0.96,1.16-2.33,2-4c1-1.99,1.3-2.55,2-3c1.39-0.89,3.55-0.83,4,0c0.5,0.92-1.45,2.1-2,5
	c-0.24,1.25-0.12,2.32,0,3"/>
<path class="st0" d="M251,404c-0.35,0.37-2,2.18-2,5c0,0.51,0.05,2.96,2,5"/>
<path class="st0" d="M256,405c0.46,0.39,1.48,1.37,2,3c0.6,1.86,0.18,3.44,0,4"/>
<path class="st0" d="M261,404c0.64,0.98,1.57,2.68,2,5c0.39,2.12,0.2,3.89,0,5"/>
<line class="st0" x1="283" y1="262" x2="339" y2="260"/>
<line class="st0" x1="283.5" y1="273.5" x2="304.5" y2="272.5"/>
<line class="st0" x1="285.5" y1="287.5" x2="296.5" y2="286.5"/>
<line class="st0" x1="284.5" y1="324.5" x2="331.5" y2="321.5"/>
<line class="st0" x1="285.5" y1="332.5" x2="301.5" y2="332.5"/>
<line class="st0" x1="284.5" y1="345.5" x2="296.5" y2="344.5"/>
<line class="st0" x1="287.5" y1="389.5" x2="327.5" y2="386.5"/>
<line class="st0" x1="287.5" y1="402.5" x2="308.5" y2="400.5"/>
<line class="st0" x1="289.5" y1="414.5" x2="301.5" y2="414.5"/>
<path class="st0" d="M363.5,404.5c0.83-0.83,1.67-1.67,2.5-2.5l-10-17l-9,4c1.17,2.5,2.33,5,3.5,7.5"/>
<path d="M189.5,385.5c-1.28,1.04-1.26,2.37-2,8c-1.21,9.18-1.83,9.8-1,11c1.31,1.9,3.15,0.82,15,2c3.44,0.34,8.97,1,13,1
	c1.87,0,2.33-0.14,4,0c2.29,0.19,3.2,0.61,4,0c0.62-0.47,0.75-1.32,1-3c0.33-2.27,0.5-3.41,0-4c-1.01-1.19-3.31-0.01-8,0
	c-1.45,0-1.76-0.11-3,0c-1.17,0.1-1.55,0.25-2,0c-0.61-0.34-0.85-1.15-1-3c-0.18-2.2-0.06-3.87,0-5c0.16-3.04,0.25-4.55,0-5
	c-0.98-1.78-3.53-1.33-11-2C192.26,384.94,190.93,384.35,189.5,385.5z"/>
<path class="st0" d="M287.5,211.5c-25.83,0.17-51.67,0.33-77.5,0.5l-1,75"/>
<path class="st0" d="M299.5,212.5c0.67,0,1.33,0,2,0"/>
<path class="st0" d="M353.5,211.5c12.67-0.33,25.33-0.67,38-1l-1,124"/>
<path class="st0" d="M246.5,485.5c-3,0-6,0-9,0h-29c0.33-19,0.67-38,1-57"/>
<line class="st0" x1="375.5" y1="485.5" x2="257.91" y2="485.62"/>
<path class="st0" d="M208.5,459.5c7.67,0,15.33,0,23,0c-3.33,0-6.67,0-10,0C217.17,459.5,212.83,459.5,208.5,459.5z"/>
<line class="st0" x1="243.5" y1="459.5" x2="367" y2="459.5"/>
<circle cx="298" cy="472" r="8.5"/>
<line class="st0" x1="224.09" y1="376.04" x2="235.5" y2="376.5"/>
<path class="st0" d="M224.09,376.04"/>
<path class="st0" d="M221.82,375.95"/>
<path class="st0" d="M218.5,375.5c1,0,2,0,3,0"/>
<path class="st0" d="M217.86,375.79"/>
<path class="st0" d="M216.71,375.75"/>
<path class="st0" d="M210.5,375.5c2,0,4,0,6,0"/>
</svg>
