<?xml version="1.0" encoding="utf-8"?>
<!-- Generator: Adobe Illustrator 23.0.1, SVG Export Plug-In . SVG Version: 6.00 Build 0)  -->
<svg version="1.1" id="Layer_1" xmlns="http://www.w3.org/2000/svg" xmlns:xlink="http://www.w3.org/1999/xlink" x="0px" y="0px"
	 viewBox="0 0 600 600" style="enable-background:new 0 0 600 600;" xml:space="preserve">
<style type="text/css">
	.st0{fill:none;stroke:#000000;stroke-miterlimit:10;}
	.st1{fill:none;stroke:#FFFFFF;stroke-miterlimit:10;}
	.st2{fill:#FFFFFF;}
	.st3{stroke:#000000;stroke-miterlimit:10;}
</style>
<path d="M248,284c0.39-0.9,0.26-2.28,0-5c-0.42-4.34-0.66-6.53-2-8c-0.68-0.74-0.77-0.47-3-2c-3.24-2.23-3.37-3.04-5-4
	c-2.12-1.25-4.42-1.17-9-1c-1.53,0.06-4.39,0.16-8,1c-2.72,0.63-3.26,1.07-5,1c-0.79-0.03-3.51-0.2-6-2c-1.66-1.2-3.18-3.1-3.5-3.5
	c-0.8-0.99-1.11-1.57-1.5-1.5c-0.8,0.14-1.12,2.81-1,5c0.08,1.41,0.4,2.76,3,8c1.91,3.84,2.89,5.79,4,7c1.33,1.45,3.14,3.42,6,4
	c2.8,0.57,5.38-0.98,9-3c2.07-1.15,2.51-1.7,4.5-2.5c2.23-0.9,4.15-1.67,6-1c1.59,0.57,2.39,2.05,4,5c0,0,0.88,1.61,3,7l0,0
	C247.18,285.9,248,284,248,284z"/>
<path class="st0" d="M222,283c-1.72,2.54-2.05,4.57-2,6c0.05,1.55,0.54,2.47,0,4c-0.31,0.88-0.98,2.04-2,3c-0.98,0.93-1.65,1.07-2,2
	c-0.35,0.92-0.08,1.78,0,2c0.45,1.29,1.67,1.86,2,2c2.07,0.87,3.37-0.81,5,0c0.93,0.46,0.72,1.11,2,3c0.29,0.43,1.68,2.43,4,4
	c1.19,0.81,2.75,1.85,5,2c2.65,0.18,4.63-0.99,5.5-1.5c2.07-1.22,3.16-2.79,4-4c0.88-1.27,2.11-3.04,2.5-5.5
	c0.63-3.99-1.44-6.74,0-8c0.61-0.54,1.15-0.26,2-1c0.74-0.64,1.24-1.82,1-3c-0.25-1.21-1.23-2.19-2.5-2.5"/>
<path class="st0" d="M235.5,311.5c-0.47,1.31-0.12,1.84,0,2c0.49,0.61,1.67,0.42,4,0c1.77-0.32,2.66-0.48,3-1
	c0.61-0.92,0.14-2.52-1-4"/>
<path class="st0" d="M234.5,312.5c-1.29,0.72-3.19,1.97-5,4c-2.47,2.77-3.5,5.58-4,7c-5.12,14.46-7.68,21.69-7,22
	c0.79,0.36,3.57-2.94,12-18"/>
<path class="st0" d="M218.5,345.5c2.7,3.13,5.18,5.44,7,7c4.69,4.03,6.15,4.12,7,4c2.96-0.41,4.62-4.1,5-5"/>
<path class="st0" d="M243.5,310.5c2.73,0.08,6.63,0.47,11,2c2.46,0.86,13.11,4.9,23,21c6.75,10.99,9.18,21.13,12,37
	c2.39,13.42,11.28,63.39,5,65c-2.17,0.55-3.39-5.37-12-12c-1.39-1.07-8.84-6.68-20-9c-9.67-2.01-17.68-0.62-27,1
	c-6.21,1.08-7.22,1.82-15,3c-11.25,1.71-16.16,1.23-18,1c-7.07-0.86-15.08-3.56-15-6c0.05-1.58,3.44-1.62,7-5
	c2.23-2.12,3.47-4.56,5-9c2.7-7.83,4.17-15.68,5-22"/>
<path class="st0" d="M230.5,357.5c-2.59,3.38-4.64,6.14-6,8c-1.64,2.24-3.84,5.29-7,9c-2.1,2.46-3.16,3.7-4,4
	c-5.32,1.93-13-6.84-14-8c-8.39-9.76-4.24-15.42-12-22c-3.3-2.8-7.77-4.93-8-9c-0.06-1.17,0.21-2.73,1-3c1.78-0.61,4.07,6.07,8,6
	c1.54-0.03,3.11-1.08,4-2c1.42-1.47,1.46-3.01,2-3c0.79,0.02,1.05,3.3,2,7c0.36,1.4,1.58,4.28,4,10c3.27,7.72,3.8,8.69,5,9
	c0.56,0.14,2.21,0.39,7-4c2.49-2.29,5.84-5.83,9-11"/>
<path class="st0" d="M193.5,338.5c-1.46-2.86-2.4-5.29-3-7c-1.23-3.53-1.49-5.49-3-6c-0.99-0.33-2.02,0.13-4,1
	c-1.73,0.76-2.6,1.15-3,2c-0.58,1.21,0.2,2.32,1,5c0.4,1.35,0.79,3.02,1,5"/>
<path class="st0" d="M263.5,337.5c4.24,10.87,8.41,23.23,12,37c3.88,14.88,6.39,28.69,8,41"/>
<path class="st0" d="M249.5,347.5c1.72,3.11,3.92,7.89,5,14c1.25,7.07,0.23,11.61,0,18c-0.21,5.69,0.17,13.86,3,24"/>
<path class="st0" d="M243.5,347.5c-0.99,8.95-3.77,15.13-6,19c-1.77,3.06-4.87,6.75-11,14c-1.51,1.79-9.06,10.71-11,13"/>
<path class="st0" d="M247.5,373.5c-0.16,3.44-0.79,8.43-3,14c-2.92,7.36-7.24,12.29-10,15"/>
<path class="st0" d="M210.5,384.5c-0.08,4.54-0.73,10.48-3,17c-0.91,2.62-1.95,4.95-3,7"/>
<path class="st0" d="M266.5,417.5c-1.66,1.34-4.36,3.3-8,5c-4.66,2.18-7.41,2.32-14,4c-7.73,1.98-11.59,2.96-15,5
	c-5.63,3.37-8.97,7.89-12,12c-2.88,3.9-4.79,7.47-6,10c-3.88,6.32-4.87,11.4-5,15c-0.08,2.16,0.09,5.5-2,7c-0.87,0.62-2.24,0.75-5,1
	c-2.92,0.27-4.37,0.4-5,0c-2.26-1.45-0.75-6.8,0-13c0.99-8.15-0.66-6.9,0-17c0.96-14.62,4.66-20.91,6-23c1.13-1.76,2.22-3.11,3-4"/>
<path class="st0" d="M195.5,419.5c-1.67,6.91-2.52,12.73-3,17c-1.3,11.65-0.28,16.59-1,21c-0.25,1.52-0.16,2.35,0,4
	c0.17,1.71,0.47,2.45,1,3c0.66,0.69,1.5,0.91,2,1"/>
<path class="st0" d="M192.5,464.5c-0.59,2.18-0.86,3.83-1,5c-0.13,1.06-0.2,2.12-1,3c-0.52,0.56-0.98,0.66-1,1
	c-0.02,0.41,0.63,1.06,4,2"/>
<path class="st0" d="M189.5,473.5c-2.41,2.14-4.5,2.8-6,3c-1.64,0.22-3.16-0.04-5,1c-0.65,0.37-1.84,1.03-2,2
	c-0.26,1.55,2.14,3.61,6,5"/>
<path class="st0" d="M185.5,479.5c-0.67-1-1.33-2-2-3"/>
<path class="st0" d="M194.5,476.5c-0.64,1.46-1.44,2.42-2,3c-1.89,1.95-4.23,2.75-5,3c-1.56,0.51-2,0.34-3,1
	c-0.26,0.17-2.23,1.51-2,3c0.07,0.45,0.38,1.18,2,2c2.94,1.49,6,1.18,8,1c10.39-0.95,11.7-0.32,13-2c1.55-2.01,1.16-4.82,1-6
	c-0.45-3.23-2.3-5.29-3-6"/>
<path class="st0" d="M193.5,478.5c0.88,0.45,2.26,0.98,4,1c1.1,0.01,2.6,0.03,4-1c1.37-1.01,1.85-2.44,2-3"/>
<path class="st0" d="M195.5,483.5c-0.04-0.3-0.21-1.21-1-2c-0.21-0.21-0.9-0.84-2-1"/>
<path class="st0" d="M192.5,485.5c-0.18-0.54-0.48-1.25-1-2c-0.68-0.99-1.46-1.62-2-2"/>
<path class="st0" d="M188.5,478.5c-0.14-0.5-0.42-1.25-1-2c-0.34-0.44-0.7-0.76-1-1"/>
<path d="M281.5,424.5c0.12,1.32-0.59,2.54-2,5c-0.42,0.72-1.69,2.83-4,5c-0.57,0.54-1.95,1.78-4,3c-1.35,0.8-4.19,2.47-8,3
	c-3.76,0.52-4.67-0.97-6,0c-1.24,0.9-1.18,4.28-1,11c0.13,5.06,0.33,5.36,0,7c-0.02,0.11-0.41,2.05-0.49,4.61
	c-0.04,1.34,0.03,2,0.49,2.39c0.7,0.6,1.66-0.24,3,0c2.57,0.45,4.26,2.22,5,3c2.08,2.19,2.76,4.66,3,6c0.19,1.09,0.44,2.48,0,4
	c-0.85,2.94-3.72,4.39-7,6c-2.72,1.33-6.12,3-11,3c-5.78,0.01-9.87-2.32-11-3c-2.73-1.65-6.99-4.22-7-8c-0.01-4.54,6.13-7.57,7-8
	c3.85-1.9,6.14-0.09,8-2c1.31-1.34,0.64-2.53,1-9c0.19-3.4,0.41-3.69,1-12c0.31-4.32,0.27-4.6,0-5c-1.65-2.43-6.37-1.26-19-1
	c-5.81,0.12-7.54-0.12-8-1c-0.51-0.97,2.69-3.89,6-6c1.07-0.68,3.29-2,9-4c0.91-0.32,3.6-1.25,10-3c8.46-2.32,8.37-1.96,11-3
	c6.41-2.55,6.2-4.4,10-5C273.79,416.51,281.14,420.53,281.5,424.5z"/>
<path class="st1" d="M273,424c-0.81,1.13-2.1,2.63-4,4c-2.73,1.96-5.41,2.7-7,3"/>
<path class="st1" d="M255.5,432.5c-1.05,0.39-2.4,0.78-4,1c-2,0.27-3.72,0.17-5,0"/>
<path class="st1" d="M240.5,434.5c-1.66,0.45-3.68,0.85-6,1c-1.46,0.1-2.8,0.08-4,0"/>
<path class="st0" d="M264.5,439.5c-0.17,5.17-0.33,10.33-0.5,15.5l8-6c0.17-4.17,0.33-8.33,0.5-12.5"/>
<path d="M263.24,453.64c-0.51,1.38-0.06,2.64,0.07,3c0.32,0.86,0.98,1.56,2.32,2.95c0.6,0.63,0.91,0.94,1.15,0.97
	c1.14,0.16,1.57-1.78,4.4-4.1c0.72-0.59,1.42-1.06,2.2-2.05c0.57-0.72,0.98-1.25,1.08-2.03c0.18-1.42-0.83-2.56-1.19-2.97
	c-0.45-0.51-0.7-0.8-1.15-0.97c-1.46-0.58-3.34,0.66-5.57,2.13C264.63,451.83,263.66,452.48,263.24,453.64z"/>
<path class="st0" d="M289,356c1.04-5.37,2.35-11.06,4-17c2.68-9.66,5.8-18.34,9-26"/>
<path class="st0" d="M323.5,290.5c-2.34,3.23-4.39,5.93-6,8c-3.72,4.79-5.59,6.88-8,9c-1.9,1.67-2.85,2.5-4,3
	c-4.28,1.86-8.87-0.24-13-2c-4.73-2.01-26.88-11.21-31-16c-0.2-0.24-1.32-1.54-1-2c0.33-0.46,1.96,0.13,2,0c0.05-0.15-2.22-0.47-3-2
	c-0.36-0.71-0.41-1.7,0-2c0.36-0.26,0.96,0.09,1,0c0.08-0.17-2.31-1-4-3c-0.25-0.3-1.32-1.56-1-2c0.39-0.55,2.72,0.37,4,1
	c2.38,1.16,3.36,2.38,4,2c0.54-0.32,0.09-1.34,1-3c0.53-0.96,0.88-1,1-1c0.29,0,0.59,0.26,1,1c0.65,1.17,0.81,2.15,1,3
	c0.07,0.31,0.45,1.96,1,3c0.92,1.73,2.7,2.47,4,3c6.54,2.63,9.8,3.95,10,4c13.76,3.53,15.99,6.94,19,5c2.24-1.44,1.41-3.61,5-11
	c1.49-3.06,2.97-5.45,4-7"/>
<path d="M319.5,256.5c-0.61-0.41-1.38,0.03-4,1c-4.11,1.53-4.1,1.16-6,2c-1.49,0.66-2.65,1.56-7,5c-5.25,4.16-7.88,6.27-8,8
	c-0.15,2.2,1.68,2.43,6,9c2.31,3.5,2.82,5,4,5c2.5,0,3.06-6.71,6-7c1.19-0.12,1.58,0.94,7,6c3.31,3.09,4.45,3.8,6,4
	c1.64,0.21,2.78-0.29,3.5,0.5c0.65,0.72,0.33,1.81,0,4c-0.27,1.82-0.26,3.67-0.5,5.5c-0.39,2.99-0.7,6-1,9
	c-0.78,7.73,0.09,10.09,0,18c-0.17,14.5-3.26,19.14,0,22c1.51,1.33,4.34,1.22,10,1c7.11-0.27,12.51-0.48,15-4
	c1.33-1.88,1.15-3.76,1-8c-0.22-6,0.27-12.01,0-18c-0.57-12.64,0.51-11.42,0-25c-0.34-9.04-0.54-13.7-2-20
	c-2.75-11.9-6.9-16.76-8-18c-3.08-3.45-9.27-8.72-13-7c-1.06,0.49-1.21,1.2-5,8c-2.08,3.72-3.53,6.19-4,6
	C318.81,263.23,321.16,257.62,319.5,256.5z"/>
<path class="st2" d="M325.98,321c1.01-1.08,2.55-1,3.85-1c2.59-0.01,5.13-0.74,7.71-1c7.43-0.74,14.09-3.9,14.45-3
	c0.01,0.03,0,0.02,0,1c0,0.76,0,0.95,0,1c-0.06,1.18-9.19,2.45-12.53,3c-4.37,0.72-11.74,2.36-12.86,5.79
	c-0.12,0.37-0.32,1.21-0.63,1.21c-0.49,0.01-1.1-2.06-0.96-4C325.08,323.11,325.16,321.88,325.98,321z"/>
<path class="st2" d="M313,311"/>
<path class="st0" d="M325,350c-0.3,4.27-0.48,10.1,0,17c0.59,8.45,1.95,15.02,3,20c1.64,7.8,2.46,11.71,3.5,14.5
	c1.95,5.25,3.68,7.68,2.5,9.5c-0.56,0.87-1.87,1.72-11,1c-10.26-0.81-17.33-2.57-19-3c-3.64-0.93-6.57-1.86-8.5-2.5"/>
<path class="st0" d="M350.5,343.5c1.14,3.04,2.23,5.42,3,7c1.68,3.45,2.53,4.56,3,7c0.43,2.2,0.47,3.92,0,6
	c-1.08,4.75-1.78,8.17-4,13c-4.42,9.6-2.36,7-7,17c-5.56,11.97-7.33,13.08-11,22c-2.68,6.51-4.09,11.65-5,15
	c-3.85,14.2-5.29,28.46-7,37c-0.58,2.89-0.78,3.11-1,5c-0.33,2.87-0.06,4.05-1,5c-0.7,0.7-1.35,0.57-4,1c-4.54,0.74-5.09,1.52-6,1
	c-1.69-0.97-0.92-4.33-1-9c-0.07-4.38-0.81-5.37-2-12c-1-5.6-1.34-10.07-2-19c-0.57-7.69-1.07-17.84-1-30"/>
<path class="st0" d="M351.5,378.5c-2.03,11.29-2.74,20.57-3,27c-0.53,13.04,0.5,12.57,0,25c-0.71,17.63-0.8,20.42-1,26
	c-0.16,4.63-0.2,6.67,1,9c0.61,1.19,1.38,2.12,1,3c-0.58,1.36-3.05,0.66-6,2c-3.42,1.55-3.69,4.12-5,4c-2.66-0.24-3.63-10.95-5-21
	c-0.85-6.25-2.11-14.04-4-23"/>
<path class="st0" d="M340.5,472.5c0.33,1.65,0.7,2.99,1,4c0.27,0.9,0.47,1.47,1,2c0.8,0.81,1.79,0.97,2,1c0.95,0.13,2.31-0.08,3-1
	c0.25-0.33,0.57-0.95,0-4c-0.3-1.61-0.67-2.96-1-4"/>
<path class="st0" d="M348.5,478.5c0.68,0.39,2.03,1.3,3,3c0.29,0.5,1.67,2.92,1,5c-0.77,2.38-3.46,1.96-10,5
	c-4.69,2.18-6.73,3.98-9,3c-0.2-0.09-1.53-0.69-2-2c-0.59-1.66,0.58-3.38,1-4c1.95-2.89,4.36-2.48,7-5c0.94-0.9,2.17-2.42,3-5"/>
<path class="st0" d="M311.5,479.5c0.11,1.2,0.07,2.22,0,3c-0.14,1.59-0.44,2.31,0,3c0.43,0.67,1.24,0.84,2,1
	c0.17,0.03,3.87,0.77,5-1c0.46-0.72,0.12-1.25,0-4c-0.05-1.25-0.03-2.29,0-3"/>
<path class="st0" d="M311.5,485.5c-1,0.98-2.66,2.33-5,3c-2.62,0.75-3.84,0.02-6,1c-2.4,1.09-4.54,3.66-4,5c0.43,1.06,2.35,0.84,8,1
	c9.27,0.26,11.77,1.06,14-1c0.36-0.33,1.83-1.77,2-4c0.21-2.7-1.63-4.63-2-5"/>
<path class="st0" d="M319.5,257.5c0.13-1.37,0.19-3.07,0-5c-0.19-1.97-0.59-3.66-1-5"/>
<path class="st0" d="M327.5,242.5c0.4,0.98,0.83,2.34,1,4c0.12,1.15,0.09,2.17,0,3"/>
<path class="st0" d="M330.5,228.5c-1.5,1.47-0.62,3.59-1,8c-0.21,2.42-0.32,3.63-1,5c-1.57,3.13-4.7,4.45-6,5
	c-1.39,0.59-3.88,1.64-7,1c-0.29-0.06-4.74-1.04-7-5c-2.31-4.05-0.96-8.81-2-9c-0.71-0.13-1.27,2.09-2,2c-1.26-0.15-1.76-7.15-1-14
	c0.62-5.61,0.93-8.42,3-11c2.65-3.3,7.23-5.52,12-5c3.75,0.41,6.22,2.36,7,3c2.99,2.44,5.98,7.01,5,11c-0.36,1.45-1.25,2.84-1,3
	c0.35,0.22,1.73-2.8,4-3c1.77-0.15,3.86,1.42,4,3c0.2,2.28-3.71,4.32-5,5C331.13,228.21,331,228.01,330.5,228.5z"/>
<path d="M307,239l1.5-0.5l0,0c2.6,1.81,2.68,1.88,3,2c1.92,0.72,4.39,0.08,6-1c1.42-0.95,2.23-2.29,3-2c0.48,0.18,0.46,0.82,1,1
	c0.66,0.22,1.54-0.48,2-1c2.05-2.34,1.15-7.21,1-8c-0.15-0.8-0.32-1.39,0-2c0.63-1.21,2.82-1.81,4-1c0.73,0.5,0.9,1.41,1,2
	c0.61,3.77,1.23,7.57-1,12c-0.71,1.42-1.72,3.42-4,5c-2.8,1.94-5.73,1.99-7,2c-1.42,0.01-3.14,0.02-5-1c-0.35-0.19-3.63-2.03-4-5
	C308.49,241.39,306.99,240.92,307,239z"/>
<path class="st0" d="M421.78,135.6"/>
<path class="st0" d="M423.5,206.5c0-5.67,0-11.33,0-17"/>
<path class="st0" d="M423.37,207.66"/>
<path class="st0" d="M424.6,263.5"/>
<path class="st0" d="M347.5,462.5c27.17,0.17,54.33,0.33,81.5,0.5c-0.17-7.17-0.33-14.33-0.5-21.5"/>
<path class="st0" d="M346.82,463"/>
<path class="st0" d="M322.5,463"/>
<path class="st0" d="M309.1,463"/>
<path class="st0" d="M229.87,440.11L230,463c26.17-0.17,52.33-0.33,78.5-0.5"/>
<path class="st0" d="M229.5,309.5c0,2.33,0,4.67,0,7"/>
<path class="st0" d="M229.19,315.55"/>
<path class="st0" d="M228.9,264"/>
<polyline class="st0" points="378.62,100 228,100 228.9,264 "/>
<path class="st0" d="M369.5,119.5"/>
<path class="st0" d="M408.5,119.5"/>
<path class="st0" d="M410.5,210.5c-0.33-7.67-0.67-15.33-1-23"/>
<path class="st0" d="M410.32,211.58"/>
<path class="st0" d="M411.31,262.11"/>
<path class="st0" d="M412.5,333.5c-0.06-6.88-0.12-13.76-0.18-20.65"/>
<path class="st0" d="M348.5,432.5c18.67,0.33,37.33,0.67,56,1"/>
<path class="st0" d="M328.53,433.01"/>
<path class="st0" d="M328.53,433.01"/>
<path class="st0" d="M305.7,432.87"/>
<path class="st0" d="M296.5,432.5c3,0,6,0,9,0"/>
<path class="st0" d="M248.5,432.5c14.33,0,28.67,0,43,0"/>
<path class="st0" d="M247.5,291.5c0,6.33,0,12.67,0,19"/>
<path class="st0" d="M246.9,309.82"/>
<path class="st0" d="M246.39,270.25"/>
<path class="st0" d="M369,124.5c-41.33,0-82.67,0-124,0c0.67,49.67,1.33,99.33,2,149"/>
<circle class="st0" cx="423.5" cy="133.5" r="56"/>
<circle class="st0" cx="432.5" cy="261.5" r="56"/>
<circle class="st0" cx="433.5" cy="385.5" r="56"/>
<path d="M449,146c1.96,0.1,4.16-3.03,5-6c1.32-4.63-1.35-6.37,0-11c0.89-3.05,2.2-2.81,3-6c0.25-1,1.19-4.98-1-9
	c-1.56-2.87-4.54-5.44-8-6c-3.43-0.56-4.94,1.25-7,0c-1.77-1.07-1.26-2.77-3-6c-2.35-4.35-6.09-6.5-7-7c-1.19-0.65-4.52-2.4-9-2
	c-1.04,0.09-5.69,0.51-9,4c-4.18,4.4-3.05,10.31-6,11c-1.33,0.31-1.62-0.88-4-1c-3.67-0.19-6.47,2.47-7,3c-1.87,1.86-2.42,3.9-3,6
	c-0.76,2.76-1.73,6.3,0,9c1.55,2.42,3.65,1.62,5,4c0.78,1.37,0.6,3.59,0,8c-0.12,0.86-0.61,4.2,0,8c0.1,0.63,0.28,1.56,1,2
	c1.09,0.66,2.92-0.09,4-1c2.99-2.53,0.68-6.78,3-9c2.07-1.99,4.75,0.59,10,0c7.93-0.89,9.71-7.67,16-7c2.34,0.25,5.37,1.54,7,4
	c2.53,3.83,0.69,9.02,3,10c0.89,0.38,1.3-0.34,3,0C447.27,144.45,447.68,145.93,449,146z"/>
<path class="st0" d="M398,148c-0.42,0.31-1.64,1.3-2,3c-0.38,1.75,0.15,4.33,2,5c1.85,0.67,3.53-3.46,5-3c1.27,0.4,0.8,3.55,1.5,6.5
	c1.58,6.7,8.68,10.33,10,11c6.5,3.32,15.48,3.46,21-1c1.9-1.53,3.26-3.69,6-8c1.45-2.29,1.99-3.51,2-5c0.01-1.48-0.51-2.15,0-3
	c0.72-1.21,2.21-0.64,4-2c0.36-0.27,1.72-1.32,2-3c0.31-1.89-0.8-4.38-3-5c-2.07-0.58-3.83,0.85-4,1"/>
<path class="st0" d="M419.5,143.5c-0.62,0.78-1.84,2.53-2,5c-0.07,1.02-0.2,3.14,1,4c1.28,0.91,3.85,0.23,6-2"/>
<path d="M455.5,261.5c2.84-2.53,2.4-6.97,2-11c-0.32-3.28-0.87-8.73-5-14c-6.24-7.96-15.48-8.87-17-9c-8.44-0.7-14.5,3.3-17,5
	c-8.6,5.85-10.97,14.33-12,18c-1,3.56-0.86,5.49,0,7c1.27,2.24,3.75,2.89,8,4c3.41,0.89,9.2,2.4,11,0c0.39-0.52,0.18-0.68,1-3
	c0.61-1.72,1.45-4.07,2-4c0.8,0.11-0.49,5.04,2,7c0.65,0.51,2.1,0.67,5,1c2.17,0.25,3.27,0.36,4,0c2.11-1.05,2.21-4.08,3-4
	c0.72,0.07,0.36,2.55,2,4c1.1,0.98,2.53,0.99,4,1C449.73,263.51,453.21,263.54,455.5,261.5z"/>
<path class="st0" d="M406.5,259.5c-0.42,0.09-2.06,0.5-3,2c-1.22,1.96-0.49,4.58,1,6c1.26,1.2,3.62,2.08,5,1
	c0.89-0.69,0.85-2.02,1-2c0.27,0.03-0.55,4.36,0,8c1.03,6.88,6.92,11.21,8,12c2.17,1.6,7.82,5.12,15,4c1.42-0.22,5.56-0.92,9-4
	c0.47-0.42,0.08-0.13,5-6c2-2.39,2.45-2.89,3-4c1.34-2.69,0.72-3.76,2-5c1.64-1.58,3.3-0.44,5-2c1.59-1.45,2.36-4.46,1-6
	c-0.92-1.04-2.48-1.03-3-1"/>
<path class="st0" d="M428.5,268.5c-0.61,0.78-1.5,2.13-2,4c-0.39,1.48-0.81,3.06,0,4c0.87,1.01,2.94,1.03,5,0"/>
<path d="M436,354c-2.1,0.17-3.28-1.23-5-2c-4.21-1.88-9.42,1.1-11,2c-4.59,2.62-6.45,6.78-10,15c-3.15,7.3-5,14-5,14
	c-1.01,3.67-3.11,12.11-7,15c0,0-1.11,0.83-1,1c0.2,0.31,4.85-3.03,6-2c1.1,0.99-1.99,5.1-1,6c0.71,0.64,2.77-1.05,9-5
	c4.38-2.78,6.09-3.67,6-5c-0.12-1.87-3.63-2.05-4-4c-0.52-2.75,5.53-6.08,9-8c4.55-2.52,5.12-1.93,8-4c4.54-3.27,5.43-6.4,7-6
	c2.02,0.51,0.87,5.75,5,11c0.53,0.67,2.75,3.5,4,3c2.02-0.81-0.3-9.64,1-10c0.87-0.24,3.75,3.21,5,7c0.3,0.92,0.76,2.63,2,3
	c0.77,0.23,1.18-0.25,2,0c1.1,0.34,2.12,1.75,2,3c-0.16,1.67-2.25,1.8-3,4c-0.47,1.37-0.1,2.64,0,3c0.4,1.38,1.15,1.8,5,5
	c1.98,1.65,2.61,2.22,3,2c0.9-0.51-0.94-4.4,0-5c1-0.64,3.66,3.5,5,3c2.23-0.82,0.32-14.29-5-27c-3.68-8.79-7.82-14.42-13-18
	c-1.97-1.36-6.52-4.51-10-3C438.52,352.64,437.85,353.85,436,354z"/>
<path class="st0" d="M433,390c-0.31,0.67-0.73,1.69-1,3c-0.3,1.41-0.54,2.58,0,3c0.55,0.42,1.79-0.03,3-1"/>
<path class="st0" d="M415.5,394.5c0.63,2.38,1.98,6.2,5,10c2.05,2.58,5.37,6.75,11,8c7.36,1.63,13.46-2.87,15-4
	c7.56-5.57,8.79-14.21,9-16"/>
<path class="st3" d="M333.5,455.5c-0.74,0.88-3.09-0.02-4.03-0.38c-1.85-0.71-3.39-1.3-4.02-2.7c-0.18-0.4-0.25-0.78,1.05-5.92
	c0.94-3.74,1.32-4.88,1-6c-0.05-0.17-0.18-0.59,0-1c0.36-0.8,1.69-0.96,2-1c0.44-0.05,0.7-0.09,1,0c1.65,0.49,1.93,4.14,2,5
	c0.02,0.2,0.01,1.14,0,3c-0.02,2.73-0.05,2.66,0,3c0.2,1.55,0.64,1.89,1,4C333.77,455.12,333.59,455.39,333.5,455.5z"/>
<path class="st0" d="M408.84,136.75"/>
<circle class="st0" cx="331.5" cy="446.5" r="9"/>
<line class="st0" x1="426.04" y1="317.5" x2="426.04" y2="329.5"/>
<line class="st0" x1="323.31" y1="463" x2="334.76" y2="463"/>
<line class="st0" x1="427.14" y1="341.1" x2="426.75" y2="323.39"/>
<path class="st0" d="M297,275c-1.05,0.59-2.52,1.54-4,3c-2.26,2.23-2.67,3.77-4,4c-1.44,0.24-2.29-1.34-5-4
	c-1.75-1.72-4.67-3.98-10.5-8.5c-1.29-1-2.2-1.69-3-3c-1.04-1.72-0.73-2.61-2-5c-0.74-1.4-0.75-0.9-2-3c-1.14-1.9-1.6-3.09-3-4
	c-0.26-0.17-1.19-0.77-1.5-0.5c-0.5,0.44,1.41,2.43,1,5c-0.08,0.51-0.24,1.51-1,2c-0.75,0.48-1.38,0.01-2.5,0.5
	c-0.58,0.25-1.5,0.86-1.5,1.5c0,0.92,1.9,1.58,3,2c2.09,0.79,3.76,2.87,7,7c3.56,4.54,4.22,6.15,7,10c5.37,7.43,8.83,12.22,13,12
	c0.86-0.05,0.27-0.23,8-4c1.64-0.8,3.19-1.54,5-3c1.38-1.12,2.36-2.22,3-3"/>
<polyline class="st0" points="260.5,254.5 256.5,250.5 250.5,256.5 261.5,268.5 263.45,266.64 "/>
<path class="st0" d="M257,285c-0.14,0.06-1.79,0.81-3,0c-1.46-0.98-1.52-3.74,0-5c1.08-0.9,2.88-0.97,4,0c0.81,0.7,0.96,1.69,1,2"/>
<path class="st0" d="M264.5,282.5c-1.93-0.11-3.18-1.65-3-3c0.13-0.97,1-1.82,2-2c1.41-0.26,2.61,0.9,3,2c0.31,0.87,0.11,1.67,0,2"
	/>
<line class="st0" x1="257.5" y1="280" x2="257.5" y2="270"/>
<line class="st0" x1="253.5" y1="271.5" x2="262.5" y2="278.5"/>
</svg>
