<?xml version="1.0" encoding="utf-8"?>
<!-- Generator: Adobe Illustrator 23.0.1, SVG Export Plug-In . SVG Version: 6.00 Build 0)  -->
<svg version="1.1" id="Layer_1" xmlns="http://www.w3.org/2000/svg" xmlns:xlink="http://www.w3.org/1999/xlink" x="0px" y="0px"
	 viewBox="0 0 600 600" style="enable-background:new 0 0 600 600;" xml:space="preserve">
<style type="text/css">
	.st0{fill:none;stroke:#000000;stroke-miterlimit:10;}
	.st1{fill:#FFFFFF;}
</style>
<path class="st0" d="M568.09,343.5"/>
<path class="st0" d="M454.49,516c38.17,0,76.34,0,114.51,0c-0.24-44.75-0.47-89.51-0.71-134.26"/>
<path class="st0" d="M568.09,343.5c-0.53-99.67-1.06-199.33-1.59-299C388.33,44.33,210.17,44.17,32,44v472h388.66"/>
<rect x="32.5" y="44.5" width="534" height="27"/>
<circle class="st1" cx="52.97" cy="57.5" r="6.5"/>
<circle class="st1" cx="70.73" cy="57.5" r="6.5"/>
<circle class="st1" cx="88.5" cy="57.5" r="6.5"/>
<circle class="st0" cx="303" cy="311" r="69.5"/>
<path d="M296.5,284.5c-0.34,0.11-0.27,0.73-0.5,1.5c-0.41,1.34-1.44,2.08-3.5,3.5c-1.23,0.85-2.52,1.74-4.5,2.5
	c-2.88,1.11-3.58,0.54-4.5,1.5c-1.14,1.19-0.23,2.44-1,6c-0.46,2.12-1.11,4.1-2,6c-1.26,2.67-2.21,4.69-4,5
	c-0.99,0.17-2.22-0.19-3-1c-1.68-1.75,0.74-4.61,0-10c-0.04-0.3-0.19-1.04-0.5-2.5c-0.76-3.66-1.32-5.65-1.5-6.5
	c-0.84-3.85,0.58-8.69,3-12c2.65-3.63,6.32-5.17,9.5-6.5c3.74-1.57,4.34-0.91,7.5-2.5c4.68-2.34,4.48-4.71,8-6
	c6.98-2.56,13.6,0.79,14,1c0.52,0.28,7.59,4.11,9,11c0.58,2.86,0.05,5.54,2,7c1.24,0.93,2.15,0.35,4,1c3.82,1.34,5.52,5.75,6,7
	c1.24,3.21,0.82,5.81,0,11c-0.7,4.4-1.55,4.92-2,5c-0.9,0.17-1.24-1.18-3-2c-2.21-1.03-5.3-0.61-7,1c-1.42,1.34-1.36,3.02-2,3
	c-0.73-0.02-1.01-2.24-2-5c0,0-1.16-3.25-3-6c-3.11-4.64-9.02-6.83-12-8c-1.52-0.59-3.03-1.03-4.5-2.5
	C297.77,285.78,297.05,284.32,296.5,284.5z"/>
<path class="st0" d="M275.73,309.5c0.01,0.51,0.12,2.06,1.27,3.5c0.27,0.34,1.29,1.64,3,2c1.63,0.34,2.23-0.44,3,0
	c1.18,0.68,0.45,2.97,0.73,5.54c0.56,5.11,4.83,8.5,5.62,9.12c1.21,0.96,3.36,1.75,7.66,3.35c3.3,1.22,4.69,1.48,6.24,1.26
	c1.28-0.18,2.74-0.68,3.69-1.01c0.63-0.22,1.72-0.6,3.06-1.26c0,0,1.93-0.95,3.63-2.21c2.3-1.7,6.83-5.04,7.59-9.75
	c0,0,0.71-4.38,2.28-5.54c0.03-0.03,0.07-0.05,0.07-0.05c0.19-0.12,0.59-0.27,2.93-0.95c0.67-0.19,1.87-0.25,2.78-0.87
	c1.84-1.23,2.1-3.98,2.22-5.13c0.08-0.83,0.05-1.53,0-2"/>
<path class="st0" d="M299.5,306.5c-0.3,0.66-0.7,1.69-1,3c-0.41,1.82-0.7,3.08,0,4c0.55,0.73,1.45,0.9,2,1c1.94,0.36,3.53-0.67,4-1"
	/>
<path class="st0" d="M295.5,332.5c0,3.33,0,6.67,0,10"/>
<path class="st0" d="M309.5,332.5c0,2.67,0,5.33,0,8"/>
<path class="st0" d="M330.5,359.5c-0.48-2.24-1.53-5.62-4-9c-2.08-2.85-4.3-4.5-5-5c-2.3-1.64-4.31-2.39-6-3
	c-2.35-0.85-3.56-1.27-5-1c-1.61,0.3-1.59,1.03-4,2c-1.04,0.42-2.78,1.1-5,1c-1.7-0.07-2.96-0.57-4-1c-3.12-1.27-3.21-2.42-5-3
	c-3.05-0.99-6.32,1.2-9,3c-3.11,2.08-4.85,4.43-6,6c-1.59,2.18-3.59,4.98-4,9c-0.13,1.25-0.07,2.3,0,3"/>
<circle class="st0" cx="102.5" cy="331.5" r="49"/>
<path class="st0" d="M87.5,313.47c-0.9,1.09-0.2,1.21-1,9.41c-0.54,5.55-1.05,7.44,0,10.35c0.57,1.58,1.22,3.37,3,4.7
	c2.82,2.11,7.08,2.01,13,1.88c2.93-0.06,4.97-0.31,6,0.94c1.12,1.35,0.11,3.32,1,3.76c0.87,0.43,2.07-1.31,5-2.82
	c2.18-1.12,4.11-1.51,6-1.88c4.5-0.89,5.15,0.09,7-0.94c2.24-1.25,3.03-3.65,4-6.58c0.46-1.38,1.04-3.68,1-6.58
	c-0.03-1.74-0.11-4.99-2-8.46c-0.73-1.34-1.81-3.33-4-4.73c-2.39-1.53-4.79-1.52-8.79-1.42c-7.31,0.2-8.93,0.36-12.21,0.5
	C92.99,312.11,89.61,310.91,87.5,313.47z"/>
<line class="st0" x1="93.5" y1="319.5" x2="111.5" y2="319.5"/>
<line class="st0" x1="93.5" y1="325.5" x2="106.5" y2="325.5"/>
<line class="st0" x1="94.5" y1="331.5" x2="101.5" y2="331.5"/>
<path class="st0" d="M86.5,325.5c-3.11-0.44-5.82-0.76-8-1c-4.41-0.49-5.56-0.5-7,0c-2.94,1.03-4.55,3.33-5,4
	c-1.31,1.94-1.55,3.66-2,7c-0.24,1.76-0.16,4.17,0,9c0.11,3.28,0.32,4.16,1,5c0.3,0.36,1.25,1.41,5,2c2.31,0.36,3.51,0.22,9,0
	c4-0.16,5.3-0.16,7,0c2.45,0.23,3.68,0.34,5,1c3.05,1.52,3.08,3.87,5,4c1.76,0.12,2.02-1.82,5-3c2.93-1.15,4.36,0.06,6-1
	c1.22-0.79,2.41-2.74,2-8"/>
<line class="st0" x1="73.5" y1="333.5" x2="85.5" y2="333.5"/>
<line class="st0" x1="73.5" y1="338.5" x2="83.5" y2="338.5"/>
<line class="st0" x1="73.5" y1="345.5" x2="80.5" y2="345.5"/>
<path class="st0" d="M63.75,424h26c4.42,0,8-3.58,8-8v-35.5"/>
<path class="st0" d="M63,434.5l37.16-0.41c4.35-0.05,7.87-3.57,7.91-7.92L108.5,381"/>
<path class="st0" d="M64.5,443.5c15.54-0.14,31.09-0.29,46.63-0.43c4.37-0.04,7.89-3.57,7.93-7.94c0.15-19.21,0.29-38.42,0.44-57.63
	"/>
<line class="st0" x1="146" y1="307" x2="233.5" y2="307"/>
<line class="st0" x1="151.5" y1="320" x2="233.5" y2="320.34"/>
<line class="st0" x1="152.5" y1="333.5" x2="237.46" y2="333.18"/>
<circle class="st0" cx="217.5" cy="420.5" r="41"/>
<polygon class="st0" points="196.5,403.5 196.5,436.5 242.5,439.5 246.5,405.5 "/>
<polyline class="st0" points="210.5,404.5 220.5,422.5 234.5,405.5 "/>
<line class="st0" x1="216.5" y1="415.5" x2="196.5" y2="436.5"/>
<line class="st0" x1="241.5" y1="438.5" x2="226.04" y2="415.77"/>
<line class="st0" x1="205" y1="504" x2="205" y2="460"/>
<path class="st0" d="M216.5,505c0-14.5,0-29,0-43.5"/>
<path class="st0" d="M228.5,505.5c0-15.33,0-30.67,0-46"/>
<path class="st0" d="M216.5,379.5v-14.55c0-4.94,3.75-8.95,8.38-8.95H250"/>
<path class="st0" d="M205.02,381.45l-0.4-27.84c-0.06-4.46,3.68-8.11,8.32-8.11H243"/>
<path class="st0" d="M228.5,380.5v-7c0-4.42,3.89-8,8.68-8H260"/>
<circle class="st0" cx="220" cy="187" r="41.5"/>
<polyline class="st0" points="187.5,178.5 198.5,178.5 207.5,200.5 232.5,200.5 243.5,178.5 251.5,178.5 "/>
<line class="st0" x1="202.5" y1="183.5" x2="238.5" y2="183.5"/>
<line class="st0" x1="209" y1="191.5" x2="232" y2="191.5"/>
<line class="st0" x1="212.5" y1="196.5" x2="227.5" y2="196.5"/>
<line class="st0" x1="215.5" y1="199.5" x2="209.5" y2="185.5"/>
<path class="st0" d="M221.5,199.5"/>
<line class="st0" x1="219.5" y1="185.5" x2="219.5" y2="199.5"/>
<line class="st0" x1="230.5" y1="185.5" x2="224.5" y2="199.5"/>
<circle class="st0" cx="226.5" cy="209.5" r="4"/>
<circle class="st0" cx="213.5" cy="209.5" r="4"/>
<path d="M102,100c-2.4-0.66-3.61-0.98-4-1c-1.79-0.08-3.24,1.95-4,3c-0.37,0.52-1.51,2.22-2,6c-0.56,4.34,0.61,4.69,0,8
	c-0.69,3.72-2.82,6.75-3,7c-1.5,2.09-2.88,3-3,5c-0.02,0.34-0.1,2.29,1,3c1.84,1.18,5.84-1.82,8-4c1.71-1.72,2.83-3.84,5-8
	c2.51-4.81,3.77-7.22,4-9c0.47-3.64-0.25-7.6,1-8c0.47-0.15,0.77,0.19,2,0c0.58-0.09,1.64-0.25,2-1c0.18-0.39,0.18-0.92,0-1
	c-0.35-0.15-1.45,1.37-2,3c-0.08,0.23-0.79,2.38,0,3c0.71,0.56,2.01-0.6,5-2c3.7-1.74,4.25-1.16,8-3c2.42-1.18,3.63-1.77,4-2
	c1.23-0.74,1.45-1.01,2-1c1.51,0.02,1.6,2.07,4,4c1.99,1.6,3.65,1.55,4,3c0.24,0.98-0.32,1.81,0,2c0.38,0.23,1.19-0.89,3-2
	c1.16-0.71,2.24-1.37,3-1s0.48,1.45,1,3c0.79,2.37,2.28,2.39,4,5c0.52,0.79,0.1,0.35,2,5c1.54,3.76,1.98,4.44,2,6
	c0.03,1.76-0.51,2.54,0,3c0.83,0.75,3.45-0.23,5-2c0.42-0.48,0.9-1.18,2-6c0.69-3.03,1.04-4.58,1-6c-0.06-2.44-0.7-4.24-1-5
	c-0.2-0.51-0.47-1.19-1-2c-1.02-1.57-2.25-2.51-3-3c-0.73-0.47-1.22-0.79-2-1c-0.36-0.1-1.07-0.24-4,0c-1.35,0.11-1.92,0.2-2,0
	c-0.11-0.28,0.94-0.69,2-2c0.71-0.87,0.92-1.67,1-2c0.18-0.71,0.35-1.38,0-2c-0.41-0.74-1.33-1.02-2-1c-0.94,0.03-1.65,0.67-2,1
	c-0.59,0.56-0.84,1.06-1,1c-0.18-0.07-0.03-0.81,0-1c0.39-2.19-1.47-5.28-3-7c-1.3-1.46-2.6-2.2-4-3c-1.16-0.66-2.74-1.54-5-2
	c-2.51-0.51-4.53-0.22-6,0c-1.01,0.15-2.01,0.44-4,1c-1.71,0.48-3.19,1-5,2c-1.24,0.69-2.63,1.47-4,3c-1.13,1.25-1.73,2.43-2,3
	c-0.63,1.35-1.19,2.53-1,4c0,0,0.05,0.37,1,3l0,0c0.07-0.23,0.16-0.62,0-1c-0.34-0.83-1.55-0.96-2-1c-0.19-0.02-2.11-0.19-3,1
	c-0.6,0.8-0.35,1.66-1,2C102.65,100.18,102.28,100.08,102,100z"/>
<path class="st0" d="M107.5,106.5c-0.34,0.01-0.95,0.09-1.5,0.5c-1.22,0.91-1.03,2.66-1,3c0.13,1.56,1.26,3.12,2,3
	c0.54-0.08,0.63-1.02,1-1c0.48,0.03,0.75,1.61,1,3c0.54,2.99,0.82,4.49,1,5c0.99,2.75,3.14,4.36,4,5c1.88,1.41,3.64,1.9,4,2
	c2.68,0.73,4.88,0.25,6,0c0.64-0.14,3.32-0.8,6-3c0.92-0.76,3.78-3.1,5-7c0.72-2.29,0.72-4.63,2-5c0.58-0.17,0.91,0.21,2,0
	c0.39-0.08,1.26-0.26,2-1c0.65-0.65,0.94-1.46,1-2c0.17-1.64-1.6-3.65-4.5-4.5"/>
<path class="st0" d="M116.5,110.5c0.08,0.72,0.13,1.76,0,3c-0.12,1.09-0.3,1.62,0,2c0.29,0.36,1.02,0.59,3,0"/>
<path class="st0" d="M119.5,127.5c0,0.91,0.01,2.29,0,4c-0.01,1.59-0.02,1.64,0,2c0.08,1.75,0.15,3.38,1,5c0.39,0.73,1.19,2.26,3,3
	c0.37,0.15,2.25,0.87,4,0c1.49-0.74,2.01-2.19,3-5c0.8-2.25,1.21-3.41,1-5c-0.19-1.48-0.76-2.03-1-4c-0.16-1.26-0.08-2.31,0-3"/>
<path class="st0" d="M118.5,133.5c-1.47,0.12-2.41,0.59-3,1c-0.61,0.42-0.83,0.77-2,2c-1,1.06-1.26,1.24-2,2
	c-0.88,0.9-2.49,2.57-4,5c-0.54,0.87-1.33,2.16-2,4c-0.27,0.74-0.53,1.59-1,4c-0.3,1.52-0.66,3.56-1,6"/>
<path class="st0" d="M132.5,131.5c1.02,0.36,2.45,0.97,4,2c1.04,0.69,3.34,2.25,5,5c0.3,0.49,0.68,1.2,2,6c1.05,3.8,1.57,5.7,2,8
	c0.62,3.31,0.83,5.82,1,8c0.37,4.61,0.62,7.8,0,12c-0.24,1.62-0.72,4.14-2,7c-1.06,2.36-2.08,4.56-4,5c-0.74,0.17-1.83-0.22-4-1
	c-3.32-1.2-3.23-1.56-5-2c-2.92-0.72-4.53-0.07-5-1c-0.25-0.5,0.17-1.33,1-3c0.56-1.13,1.05-1.76,2-3c0.61-0.8,0.78-0.92,1-1
	c0.21-0.07,0.82-0.23,3,1c1.35,0.76,1.7,1.15,2,1c0.55-0.28,0.18-1.96,0-3c-0.17-1,0.03-0.24,0-8c-0.03-7.51-0.22-7.36,0-9
	c0.41-3.11,1.34-5.53,2-7"/>
<path class="st0" d="M111.5,148.5c0.84,2.54,0.49,4.07,0,5c-0.6,1.14-1.81,2.11-2,4c-0.04,0.42-0.02,0.78,0,1"/>
<path class="st0" d="M100.5,162.5c-0.88,3.99-2.07,6.99-3,9c-1.46,3.17-2.91,5.35-2,7c0.29,0.53,1.19,1.02,3,2
	c1.63,0.88,2.45,1.32,3,1c0.69-0.4,0.58-1.4,1-3c0.3-1.12,0.86-2.5,2-4"/>
<path class="st0" d="M95.5,178.5c-0.37,2.7-1.24,3.65-2,4c-0.76,0.34-1.64,0.2-3,1c-0.12,0.07-1.11,0.7-1,1c0.18,0.46,2.89-0.33,3,0
	c0.07,0.2-1.21,0.7-3,2c-0.87,0.63-1.05,0.86-1,1c0.13,0.36,1.82,0.04,2,0c1.79-0.35,2.94-1.13,3-1c0.08,0.17-0.95,0.67-2,2
	c-0.59,0.75-1.21,1.8-1,2c0.11,0.1,0.39-0.05,2-1c1.47-0.87,1.87-1.12,2-1c0.33,0.3-1.51,2.45-1,3c0.24,0.26,0.86,0.05,1,0
	c1.31-0.45,1.77-2.08,2-2c0.24,0.09-0.36,1.81,0,2c0.31,0.17,1.28-0.9,2-2c0.81-1.24,1.09-2.23,2-5c0.24-0.72,0.58-1.75,1-3"/>
<polyline class="st0" points="134.5,169.5 130.5,157.5 99.5,158.5 106.5,180.5 130.5,182.5 "/>
<path class="st0" d="M128.5,174.5c-1.54-0.61-2.45-1.4-3-2c-0.94-1.03-1.31-2.04-2-2c-0.46,0.03-0.92,0.51-1,1
	c-0.16,0.93,1.19,1.58,1,2c-0.15,0.34-1.11,0.15-3,0c-1.47-0.12-2.94-0.23-3,0c-0.1,0.4,4.1,1.65,4,2c-0.07,0.26-2.4,0.05-3,0
	s-0.96-0.11-1,0c-0.12,0.33,3.12,1.68,3,2c-0.09,0.23-1.86-0.33-2,0c-0.11,0.25,0.76,0.84,1,1c1,0.67,2.81,1.58,6,2"/>
<path class="st0" d="M106.5,182.5c-1.33,1.15-3.11,2.81-5,5c-1.47,1.71-5.1,6.17-8,13c-1.09,2.58-2.06,6.72-4,15
	c-1.85,7.92-2.59,12.27-2.9,14.31c-0.06,0.37-0.08,0.53-0.1,0.69c-0.64,4.77-1,7.19,0,9c0.25,0.46,0.83,1.5,2,2
	c2.02,0.86,4.61-0.44,6-2c0.38-0.43,0.62-0.79,0.78-1.11c0.71-1.43,0.43-2.95,1.22-5.89c1.7-6.29,4.87-6.34,6-12
	c0.6-2.97-0.28-2.94,0-8c0.08-1.41,0.37-6.14,2-11c2.32-6.91,6.72-11.74,9-14"/>
<path class="st0" d="M102.5,215.5c0.65,9.71,1.39,14.47,2,17c0.57,2.37,1.35,4.17,1,7c-0.18,1.46-0.57,2.42,0,3
	c0.9,0.91,3.41,0.09,5-1c1.18-0.81,1.83-1.75,2-2c2.34-3.51,1.77-9.76,2-15c0.19-4.4,0.39-9.1,3-14c0.85-1.6,2.85-5.37,7-8
	c3.96-2.52,5.36-1.14,10-4c1.59-0.98,4.8-3.02,7-7c1.29-2.34,1.79-4.53,2-6l35.07-0.96"/>
<path class="st0" d="M86.5,239.5c-1.23,0.08-3.65,0.4-6,2c-1.66,1.13-2.59,2.42-3,3c-0.63,0.9-0.95,1.35-1,2
	c-0.17,2.17,2.82,3.9,3,4c2.26,1.27,5.52,1.4,8,0c2.68-1.51,3.78-4.41,5-4c0.38,0.13,0.31,0.42,1,1c0.71,0.6,2.11,1.42,3,1
	c0.92-0.43,0.97-2.03,1-3c0.04-1.37-0.14-3.91-2-7"/>
<path class="st0" d="M113.5,239.5c0.48,0.13,1.25,0.39,2,1c1.75,1.42,1.95,3.51,2,4c0.02,0.17,0.18,2.17-1,4
	c-0.35,0.54-0.57,0.88-1,1c-0.99,0.28-1.68-1.01-3-1c-0.8,0.01-1.13,0.48-2,1c-1.04,0.62-2.36,0.75-5,1c-3.41,0.33-5.34,0.09-6,0
	c-1.79-0.25-2.69-0.38-3-1c-0.81-1.61,2.73-4.76,3-5c1.01-0.88,2.92-2.28,6-3"/>
<line class="st0" x1="53.5" y1="185.5" x2="92.53" y2="185"/>
<line class="st0" x1="101.5" y1="184.5" x2="104.32" y2="184.5"/>
<line class="st0" x1="54.5" y1="196.5" x2="95.22" y2="196.86"/>
<line class="st0" x1="54.5" y1="209.5" x2="90.91" y2="209.5"/>
<line class="st0" x1="117.5" y1="210.5" x2="185.14" y2="209.5"/>
<line class="st0" x1="137.11" y1="196.68" x2="178.5" y2="195.5"/>
<circle class="st0" cx="410.5" cy="207.5" r="50"/>
<rect x="383.5" y="207.5" class="st0" width="7" height="23"/>
<rect x="399.5" y="191.5" class="st0" width="9" height="39"/>
<rect x="418.5" y="176.5" class="st0" width="9" height="54"/>
<line class="st0" x1="512.5" y1="189.5" x2="457.16" y2="189.5"/>
<line class="st0" x1="512.5" y1="206.5" x2="460.5" y2="207.5"/>
<line class="st0" x1="510.5" y1="221.5" x2="457.5" y2="221.5"/>
<path class="st0" d="M416.51,257l-0.01,54.03c0,4.13-3.32,7.47-7.42,7.47H372"/>
<path class="st0" d="M405.29,257l-1.51,40.03c-0.16,4.17-3.69,7.47-7.99,7.47h-23.43"/>
<path class="st0" d="M392.49,254.15l0.01,29.35c0,4.42-3.58,8-8,8h-14.78"/>
<path class="st0" d="M262,183.5h17.49c4.42,0,8.01,3.59,8.01,8.01V243"/>
<path class="st0" d="M261,194h8.99c4.7,0,8.51,3.59,8.51,8.02V246"/>
<path class="st0" d="M255,209h6.49c4.42,0,8.01,3.58,8.01,8.01V250"/>
<path d="M406,348c3.81-0.79,7.25,1.61,12,2c3.72,0.31,3.36-1.02,9-1c2.04,0.01,4.72,0.04,8,1c3.41,1,5.69,2.49,8,4
	c3.27,2.14,4.91,3.21,6,5c1.26,2.07,0.58,2.66,2,9c0.83,3.7,1.24,5.55,2,7c1.4,2.68,2.8,3.59,3,6c0.07,0.8,0.25,2.97-1,4
	c-1.9,1.57-4.46-1.69-11-2c-2.3-0.11-4.19,0.19-5-1c-0.65-0.96-0.65-2.53,0-3c0.2-0.14,0.38-0.13,2,0c1.51,0.12,1.72,0.15,2,0
	c0.92-0.47,1-1.91,1-2c0.05-1.34-0.88-2.67-2-3c-0.85-0.25-1.12,0.28-2,0c-0.93-0.3-1.47-1.15-2-2c-0.81-1.29-0.52-1.58-1-2
	c-1.25-1.1-3.22,0.84-5,0c-1.66-0.79-0.95-2.94-3-5c-1.42-1.43-3.17-1.82-4-2c-1.22-0.27-2.36-0.26-8,1c-4.26,0.95-4.23,1.08-5,1
	c-2.95-0.32-5.78-2.46-7-5c-0.17-0.35-0.44-1.23-1-3c-0.92-2.94-0.98-3.65-1-4c-0.05-1.01-0.15-2.82,1-4
	C404.62,348.37,405.39,348.13,406,348z"/>
<path class="st0" d="M412.5,362.5c1,3.85,0.34,6.12-0.5,7.5c-0.98,1.6-2.08,1.93-3,4c-0.66,1.49-1.11,3.96,0,5
	c0.77,0.72,1.62,0.13,4,1c1.06,0.39,1.59,0.58,2,1c1.32,1.35,0.37,3.25,1,6c0.46,2.03,1.53,3.39,2,4c1.52,1.96,3.51,2.81,7.5,4.5
	c0,0,3.4,1.44,7,2c0.81,0.12,1.88,0.23,3.15-0.06c0.65-0.15,1.01-0.37,1.35-0.44c2.97-0.61,4.21,0.84,6,0c1.52-0.72,2.12-2.62,3-6
	c0.48-1.82,1.01-4.56,1-8"/>
<line class="st0" x1="433.5" y1="398" x2="433.5" y2="402.5"/>
<path class="st0" d="M444.5,397.5c-0.42,0.54-1.07,1.28-2,2c-1.42,1.1-2.78,1.61-4,2c-5,1.61-6.22,0.8-8,2c-1.97,1.32-2.43,3.62-3,6
	c0,0-4.37,18.43-12,25c-0.5,0.43-1.14,0.89-2,1c-2.16,0.27-3.66-1.91-7-5c-3.73-3.45-5.96-5.51-8-5c-1.6,0.4-1.33,1.94-4,4
	c-2.71,2.09-4.44,1.63-5,3c-0.53,1.3,0.48,3.04,4,7c3.88,4.37,5.82,6.56,9,9c5.63,4.32,8.98,6.9,14,7c1.09,0.02,4.49-0.02,8-2
	c2.39-1.35,4.27-3.28,9-12c1.61-2.98,3.72-7.04,6-12"/>
<path class="st0" d="M420.5,457.5c-0.86,3.96-1.56,7.06-2,9c-0.9,3.95-1.08,8.05-2,12c-0.25,1.07-0.5,2.06,0,3
	c1.1,2.06,4.8,2.02,8,2c5.33-0.03,10.67,0.09,16,0c6.6-0.11,9.67,1.39,15,0c1.97-0.51,3.87-1.27,5-3c0.72-1.1,0.9-2.25,1-6
	c0.14-5.33,0-7,0-7c-0.81-9.81-1.21-14.72-2-23c-0.31-3.23-0.71-8.05-1-14"/>
<path class="st0" d="M461.5,446.5c3.51-3.09,5.19-6.18,6-8c1.17-2.64,1.15-4.07,1-5c-0.23-1.4-0.84-2.29-2-4
	c-2.96-4.38-4.43-6.55-4-6c-3.06-3.95-6-8-9-12c-2.37-3.16-5.6-7.81-9-14"/>
<path class="st0" d="M397.5,425.5c-0.17-0.4-0.78-1.67-2-2c-1.66-0.45-3.22,1.18-4,2c-0.27,0.29-1.57,1.7-2,4
	c-0.24,1.27-0.12,2.34,0,3"/>
<path class="st0" d="M395.5,422.5c-1.55-2-2.46-3.77-3-5c-1.08-2.44-1.39-4.33-3-5c-0.61-0.25-1.66-0.44-2,0
	c-0.18,0.23-0.09,0.52,0,1c0.16,0.89,0.45,2.42,0,3c-0.44,0.57-1.64,0.31-3,0c-2.53-0.58-7-2-7-2c-0.25-0.08-0.69-0.21-1,0
	c-0.63,0.43-0.39,2.02,0,3c1.15,2.87,5.01,3.98,5,4s-5.16-2.97-6-2c-0.17,0.2-0.11,0.5,0,1c0.17,0.8,0.64,1.86,2.27,3.19
	c1.45,1.19,2.77,1.73,2.73,1.81c-0.05,0.11-2.85-1.26-3-1c-0.05,0.08,0.19,0.29,1,1c1.38,1.21,2.07,1.82,2,2
	c-0.15,0.37-1.96-0.13-2,0c-0.07,0.21,4.88,1.94,11,4"/>
<polyline class="st0" points="374.5,416.5 364.5,402.5 388.5,388.5 409.5,413.5 395.5,423.5 "/>
<path class="st0" d="M416.5,481.5c0.79,7.24,7.65,70.06,9.5,76.5c0.24,0.84,0.7,2.45,2,3c2.21,0.94,4.63-2.09,7-1
	c1.23,0.56,0.85,1.5,2,2c2.52,1.09,5.31-2.99,8-2c1.4,0.52,1.58,1.97,2,2c1.51,0.11,4.74-18.21,11.5-79.5"/>
<line class="st0" x1="440" y1="492" x2="435" y2="560"/>
<path d="M426,559c-1.24-0.74-3.08,2.11-6.5,3.5c-3.38,1.37-5.33,0.12-7,2c-0.13,0.14-1.28,1.47-1,3c0.07,0.37,0.38,1.67,3,3
	c5.3,2.7,11.43,1.15,12,1c3.53-0.94,4.19-2.18,7-2c2.03,0.13,2.48,0.83,5,1c1.6,0.11,4.07,0.27,6-1c2.68-1.77,4.47-5.83,3-8
	c-0.71-1.04-2.23-1.74-3.5-1.5c-1.31,0.25-1.32,1.31-3,2c-0.24,0.1-2.38,0.95-4,0c-1.1-0.64-0.88-1.48-2-2c-1.04-0.48-2.19-0.2-3,0
	c-1.72,0.42-1.92,1.15-3,1c-0.89-0.12-1.66-0.73-2-1C426.31,559.45,426.32,559.19,426,559z"/>
<polygon class="st0" points="512,342 497,364 539,413 583.5,365.5 571.5,343.5 "/>
<path class="st0" d="M526.5,342.5c-3,7.33-6,14.67-9,22c7,15.67,14,31.33,21,47c1.67-23,3.33-46,5-69"/>
<path class="st0" d="M557.5,343.5c2,7.33,4,14.67,6,22c-8,15.33-17,31.67-25,47"/>
<line class="st0" x1="496.5" y1="364.5" x2="583.5" y2="365.5"/>
</svg>
