<?xml version="1.0" encoding="utf-8"?>
<!-- Generator: Adobe Illustrator 23.0.1, SVG Export Plug-In . SVG Version: 6.00 Build 0)  -->
<svg version="1.1" id="Layer_1" xmlns="http://www.w3.org/2000/svg" xmlns:xlink="http://www.w3.org/1999/xlink" x="0px" y="0px"
	 viewBox="0 0 600 600" style="enable-background:new 0 0 600 600;" xml:space="preserve">
<style type="text/css">
	.st0{fill:none;stroke:#000000;stroke-miterlimit:10;}
	.st1{fill:none;stroke:#FFFFFF;stroke-miterlimit:10;}
	.st2{fill:#FFFFFF;}
</style>
<path d="M234,328c2.21-4.48,2-12,2-12s0.25-10.26-2-17c0,0-1.12-4.68-3-5c-0.56-0.09-1,0-1,0c-1.1,0.23-1.42,1.12-2,1
	c-0.44-0.09-0.41-0.76-1-1c-0.48-0.2-0.96-0.02-1,0c-0.67,0.27-0.87,1.05-1,1c-0.15-0.06,0.37-1.05,0-2c-0.02-0.06-0.34-0.85-1-1
	c-0.78-0.18-1.59,0.6-2,1c-0.63,0.61-0.72,1.02-1,1c-0.42-0.04-0.7-0.99-1-2c-0.31-1.04-0.25-1.31-0.5-1.5c-0.68-0.52-2.28,0.55-3,1
	c-3.18,2-3.7,1.19-7,3c-1.48,0.81-6.56,3.61-9.5,9.5c-1.69,3.39-1.95,6.37-2,7c-0.15,2.02,0.23,4.04,1,8c0.73,3.78,1.1,5.67,2,8
	c0.06,0.16,1.38,3.5,4,7c0.65,0.87,1.18,1.48,2,2c1.18,0.75,3.62,1.95,5,1c0.29-0.2,0.58-0.53,1.5-4.5c0.54-2.34,0.57-2.79,1-3
	c1.08-0.53,2.19,1.56,5,2c1.77,0.28,3.77-0.17,4-1c0.22-0.79-1.22-1.68-1-2c0.21-0.31,1.62,0.47,4,1c2.48,0.55,2.89,0.13,3,0
	c0.5-0.62-0.21-1.91,0-2c0.21-0.09,0.71,1.64,2,2c0.1,0.03,0.52,0.14,1,0C233.39,329.25,233.83,328.34,234,328z"/>
<path class="st0" d="M199.5,323.5c-0.62,0.22-1.58,0.64-2.5,1.5c-0.65,0.61-2.2,2.06-2,4c0.19,1.78,1.74,2.83,2,3
	c1.79,1.16,4.34,0.94,6.5-0.5"/>
<path class="st0" d="M235.5,319.5c0.24-0.1,1.55-0.62,3,0c0.32,0.14,1.51,0.7,2,2c0.58,1.53-0.17,3.12-1,4c-1.2,1.27-3.17,1.66-5,1"
	/>
<path class="st0" d="M232.5,330.5c-0.35,1.04-0.94,2.48-2,4c-1.67,2.41-3.57,3.71-4,4c-4.48,2.98-9.57,2.26-11,2
	c-4.94-0.9-7.98-3.89-9-5"/>
<path class="st0" d="M217.5,340.5c0.33,2,0.67,4,1,6"/>
<path class="st0" d="M228.5,337.5c0,2.67,0,5.33,0,8"/>
<path class="st0" d="M230.5,346.5c-0.19-0.28-0.51-0.67-1-1c-1.03-0.7-2.2-0.69-6,0c-4.31,0.78-5.6,1.27-7,1
	c-0.16-0.03-0.54-0.11-1,0c-1,0.24-1.62,1.21-2,2"/>
<path class="st0" d="M210.5,378.5c-0.46,3.48-2.85,21.99-3,32c-0.03,2.01,0.02,4.24-0.05,10.26c-0.04,2.88-0.08,4.89,0.05,7.74
	c0.22,4.63,0.32,6.95,1,8c1.91,2.97,6.57,2.2,17,2c12.24-0.23,16.29,0.63,26-1c6.6-1.11,9.88-2.37,11-5c0.91-2.14-0.02-4.22-1-7
	c-0.04-0.1-1.36-6.07-4-18c-0.98-4.42-2.01-10.82-2-19"/>
<path class="st0" d="M234.5,369.5c3.79,6.15,8.11,9.89,11,12c4.71,3.43,10.91,7.96,17,6c5.44-1.75,7.89-7.73,8-8
	c0.73-1.81,0.73-2.99,1-6c0,0,0.48-5.33,2-14c1.56-8.94,3.58-14.17,2-15c-0.29-0.15-0.53-0.07-1,0c-4.64,0.66-8-4.44-10-3
	c-1.09,0.79-1,1.81-2,6c-0.75,3.13-0.39,0.84-3,10c-2.31,8.1-2.29,8.83-3,9c-2.92,0.7-8.14-10.41-15-17c-0.31-0.3-3.94-3.71-8-4
	c-0.27-0.02-0.58-0.04-1,0c-2.8,0.27-3.6,2.56-6,4c-2.98,1.79-6.52,1.1-7,1c-3.12-0.65-4.33-2.64-6-2c-1.34,0.51-1.8,2.28-2,3
	c-2.3,8.24-6.73,9.67-11,26c-1.91,7.29-2.84,11.02-2,15c1.23,5.82,4.73,9.84,7,12"/>
<path class="st0" d="M272.5,341.5c0.94-2.64,0.26-3.68,0-4c-0.91-1.12-2.31-0.23-7-1c-1.11-0.18-1.69-0.34-2,0
	c-0.67,0.74,0.69,3.07,2,5"/>
<path class="st0" d="M263.5,335.5c-1.42-1.08-2.38-2.19-3-3c-1.39-1.83-1.82-3.24-2-4c-0.2-0.87-0.39-1.67,0-2
	c0.77-0.66,2.65,1.56,4,1c1.42-0.59,0.56-3.56,2-8c0.74-2.29,2.16-5.17,3-5c0.92,0.18,0.97,3.98,1,6c0.04,3.04-0.29,5.95,0,6
	c0.27,0.04,0.48-2.46,2-3c0.17-0.06,0.69-0.25,1,0c0.82,0.64-0.77,3.46,0,4c0.25,0.17,0.45-0.09,1,0c1.25,0.2,1.93,1.81,2,2
	c0.55,1.38,0.11,2.68,0,3c-0.54,1.51-1.49,1.64-2,3c-0.33,0.88-0.33,1.88,0,3"/>
<path class="st0" d="M248.5,521.5c0.52-2.78,1.26-6.93,2-12c2.18-14.87,2.7-25.89,3-31c0.57-9.83,1.85-24.13,5-43"/>
<path class="st0" d="M211.5,440.5c1.94,11.95,3.72,21.47,5,28c1.86,9.52,2.24,10.57,4,20c1.58,8.45,1.77,10.29,3,15
	c2.15,8.26,3.23,12.39,4,14c0.82,1.7,1.21,3.46,2,7c0.13,0.57,0.37,1.7,0,3c-0.24,0.86-0.58,1.18-1,2c-0.31,0.61-1.49,2.77-1,4
	c0.72,1.82,3.8,1.45,12,3c4.01,0.76,3.55,0.9,5,1c5.26,0.36,9.32-1.64,12-3c3.82-1.94,7.65-3.88,9-8c0.31-0.95,1.15-3.52,0-5
	c-2.93-3.79-16.44,2.72-17,3"/>
<path class="st0" d="M230.5,528.5c0.9,0.07,2.3,0.13,4,0c2.39-0.18,3.25-0.58,4,0c0.89,0.7,0.47,1.9,1,4c0.46,1.81,1.33,3.15,2,4"/>
<path class="st0" d="M260.5,525.5c-0.93,0.35-2.3,0.78-4,1c-1.75,0.22-2.76,0.36-4,0c-2.11-0.61-2.29-1.89-4-2
	c-1.11-0.07-1.96,0.41-3,1c-2.54,1.44-3.17,3.25-4,3c-0.48-0.15-0.51-0.83-1-3c-0.83-3.66-1.49-4.53-1-5c0.68-0.65,2,0.98,5,1
	c1.96,0.01,3.6-0.67,4,0c0.11,0.18,0.05,0.32,0,1c-0.06,0.85-0.03,1.54,0,2"/>
<path class="st0" d="M229.5,522.5c1.13,0.2,2.9,0.38,5,0c0.86-0.16,3.53-0.67,5-2c2.66-2.41,1.14-7.93,0-13
	c-1.4-6.26-1.47-12.77-3-19c-1.88-7.67-4.22-20.33-6-42"/>
<path d="M361.5,244.5c1.69-0.01,5.77-0.05,10,2c6.47,3.15,9.4,8.79,10,10c3.29,6.65,2.05,12.81,1,18c-0.81,4.02-2.11,10.03-7,13
	c-0.61,0.37-2.82,1.79-4,1c-1.11-0.74-0.48-2.85-0.5-8.5c-0.01-3.14-0.03-4.73-0.5-5.5c-1.52-2.48-4.3-1.27-10-4
	c-2.25-1.08-4.49-2.15-6.5-4.5c-2.09-2.44-1.93-3.93-3.5-4.5c-2.24-0.81-3.67,2.02-8,3c-4.77,1.08-9.83,0.18-10-1
	c-0.11-0.77,1.95-1.18,5-3c4.74-2.83,4.63-4.69,12-11c2.75-2.35,4.71-3.76,7.5-4.5C358.8,244.52,360.26,244.51,361.5,244.5z"/>
<path class="st0" d="M371,289c-0.34,0.56-0.37,1.39,0,2c0.48,0.81,1.47,0.93,2,1c0.28,0.03,2.27,0.28,3-1c0.34-0.59,0.36-1.41,0-2
	C375.11,287.54,371.88,287.57,371,289z"/>
<path d="M371.5,293.5c0.02,0.11,0.04,0.2,0.04,0.22c0.12,0.54,0.65,3.7,0.96,5.78c0.58,3.94,0.65,5.99,1,8
	c1.22,6.94,5.87,13.52,8,13c1.12-0.27,1.85-2.58,2-4c0.18-1.66-0.35-2.85,0-3c0.38-0.17,1.14,1.24,3,3c1.08,1.02,2.44,2.31,3,2
	c0.26-0.14,0.67-0.79-1-6c-0.64-2-1.93-5.75-5-12c-3.65-7.43-2.22-2.93-5-8c-0.27-0.5-1.15-2.12-2-2c-0.44,0.06-0.43,0.53-1,1
	c-1.39,1.16-3.76,0.29-4,1C371.44,292.67,371.44,293.13,371.5,293.5z"/>
<path class="st0" d="M342.5,281.5c0.14,1.62,0.51,3.92,1.5,6.5c1.26,3.28,3.29,8.54,8,10c4.83,1.5,9.51-1.91,11-3
	c3.76-2.74,5.37-6.34,6-8"/>
<path class="st0" d="M343.5,263.5c-0.93,2.32-1.8,5.38-2,9c-0.06,1.06-0.05,2.06,0,3"/>
<path class="st0" d="M345.5,272.5c-0.89,0.38-4,1.82-5,5c-0.22,0.71-0.68,2.16,0,3c0.93,1.14,3.73,0.84,7-1"/>
<path class="st0" d="M363.5,294.5c-0.67,1.67-1.33,3.33-2,5"/>
<path class="st0" d="M363.5,295.5c1.21,0.45,3.12,1.32,5,3c1.11,0.99,3.44,3.37,3,4c-0.75,1.06-7.81-5.33-14-3
	c-1.73,0.65-2.8,1.76-4,3c-1.77,1.83-3.03,3.98-5,10c-0.94,2.87-2.03,6.58-3,11"/>
<path class="st0" d="M350.5,300.5c-1.04-0.33-3.39-0.91-6,0c-0.23,0.08-1.24,0.43-2,1c-2.75,2.05-2.18,6.84-2,15
	c0.05,2.2,0.09,5.66,0,10"/>
<path class="st0" d="M355.5,318.5c-8.64,9.43-12.31,10.8-14,10c-0.37-0.18-1.42-0.82-3-1c-0.34-0.04-3.18-0.33-4,1
	c-0.66,1.08,0.31,2.74,1,4c4.26,7.84,2.71,10.34,7,15c1.26,1.37,3.29,3.54,5,3c1.51-0.47,1.97-2.81,2-3c0.57-3.09-1.81-5.38-4-9
	c-1.33-2.2-2.95-5.47-4-10"/>
<path class="st0" d="M360.5,312.5c1.02,0.53,2.96,1.73,4,4c0.54,1.19,1.01,3.04,0,7c-0.48,1.89-1.91,6.68-7,13
	c-1.74,2.16-4.34,5.05-8,8"/>
<path class="st0" d="M334.5,330.5c-6.38-3.82-10.97-7.92-14-11c0,0-7.19-7.35-13-19c-1.38-2.78-2.08-4.2-2-6
	c0.09-2.12,1.05-4.01,0-6c-0.19-0.35-0.52-0.98-1-1c-1.2-0.04-1.52,3.79-3,4c-1.06,0.15-1.6-1.71-4-4c-1.64-1.57-4.35-3.54-5-3
	c-0.79,0.65,0.59,5.68,4,9c0.89,0.86,2.27,1.96,2,3c-0.26,1.01-1.94,1.05-2,2c-0.08,1.27,2.16,1.96,2,3c-0.15,0.95-2.05,0.64-3,2
	c-1.13,1.62-0.1,4.42,1,6c0.59,0.85,0.98,1.03,2,2c1.6,1.51,2.51,2.83,4,5c2.04,2.97,3.06,4.46,6,10c5.22,9.83,12.4,15.54,18,20
	c3.11,2.48,5.7,4.12,9,4c3.23-0.12,5.69-1.87,7-3"/>
<path class="st0" d="M302.5,292.5c1,1,2,2,3,3"/>
<path class="st0" d="M340.5,348.5c0.39,17.38-0.53,29.47-1.5,37.5c-0.77,6.32-0.61,12.79-2,19c-1.59,7.08-3.39,11.63-1,15
	c1.91,2.69,5.64,3.36,8.5,3.5"/>
<path class="st0" d="M346.5,394.5c-1.27,14.17-2.03,26.21-2.5,35.5c-1.48,29.07,0.78,12.3,0,26c-0.44,7.75-1.33,16.31,3,19
	c0.79,0.49,0.85,0.22,6,2c5.52,1.9,6.14,2.45,7,2c1.95-1.01,1.26-5.07,1-14c0,0-0.11-3.97,0-12c0.06-4.51,0.46-11,2-19"/>
<path class="st0" d="M378,428c-1.93,13.28-2.68,21.68-3,27c-0.26,4.34-1.04,8.65-1,13c0.04,5.15,0.42,7.24-1,9
	c-1.01,1.25-3.78,3.37-12.5,1.5"/>
<path class="st0" d="M351,476c-0.06,5.09-0.04,9.47,0,13c0.01,0.84,0.04,2.32,1,3c0.81,0.57,1.61,0.08,4,0c2.83-0.1,3.33,0.54,4,0
	c1.1-0.88,0.31-3.02,0-7c-0.19-2.48-0.11-4.55,0-6"/>
<path class="st0" d="M367.5,494.5c0.93-2.17,1.92-5.04,2.5-8.5c0.48-2.87,0.57-5.42,0.5-7.5"/>
<path class="st0" d="M368,493"/>
<path class="st0" d="M362.5,478.5c0.29,2.19,0.5,4.71,0.5,7.5c0,2.21-0.13,4.74-0.5,7.5"/>
<path class="st0" d="M352,492c-0.25,1.1-0.78,2.64-2,4c-1.34,1.49-2.54,1.77-5,3c-0.52,0.26-6.36,3.17-6,5c0.19,0.96,2.12,1.31,6,2
	c4.79,0.86,7.23,1.26,9,0c1.64-1.17,2.31-3.23,3-3c0.55,0.19,0.25,1.55,1,2c0.84,0.51,2.4-0.45,3-1c2.96-2.72-0.56-10.98-1-12"/>
<path class="st0" d="M360.5,493.5c1.07-0.23,2.87-0.47,5,0c1.35,0.3,2.51,0.56,3.5,1.5c2.15,2.05,1.45,5.45,1,8
	c-0.12,0.69-0.33,1.48-1,2c-0.94,0.72-2.54,0.68-3,0c-0.43-0.63,0.36-1.42,0-2c-0.27-0.44-1.17-0.72-4,0"/>
<path class="st0" d="M371.5,303.5c-1.04,1.84-2.25,4.66-2,8c0.15,2.05,0.8,3.53,1,4c3.51,8.29,14.52,48.85,17,58
	c2.73,10.08,6,20,9,30c0.89,2.98,1.55,5.17,3,8c1.49,2.89,2.05,3.01,2,4c-0.22,4.59-12.61,7.64-18,9c-5.39,1.36-11,2-11,2
	c-4.84,1.65-8.62,1.98-11,2c-1.46,0.01-2.85-0.08-4-1c-1.79-1.42-1.93-3.95-2-5c-0.36-5.09-2.41-9.93-3-15
	c-1.95-16.82-2.92-25.23-3-26c-0.75-7.44-2.15-18.03-5-31"/>
<path class="st0" d="M361.5,391.5c0.43-0.96,1.46-1.25,4-2c6.69-1.97,6.54-1.99,7-2c0.92-0.03,5.54-0.06,8,3c0.2,0.25,1.54,1.92,1,3
	c-0.46,0.91-2.02,0.92-3,1c-6.31,0.54-8.24,6.04-12,5c-2.22-0.61-3.51-3.07-4-4C361.86,394.28,360.93,392.77,361.5,391.5z"/>
<path class="st0" d="M361.5,397.5c0.93,2.27,2.25,5.37,4,9c2.23,4.64,2.9,5.48,4,6c0.59,0.28,1.78,0.7,10-2c4.9-1.61,5.63-2.14,6-3
	c0.34-0.78,0.37-1.84-2-7c-1.17-2.54-2.24-4.59-3-6"/>
<path class="st0" d="M374.5,400.5c0.46,0.15,0.89,0.54,1,1c0.23,0.97-0.98,2.23-2,2c-0.51-0.11-0.87-0.57-1-1
	c-0.25-0.82,0.27-1.73,1-2C373.93,400.34,374.33,400.44,374.5,400.5z"/>
<path d="M345,351c-0.6,0.08,0.05,3.75-1,17c-0.43,5.37-0.64,8.05-1,11c-0.41,3.33-0.33,6.72-1,10c-0.52,2.51-1.19,4.76,0,6
	c0.4,0.41,0.82,0.53,3,1c3.23,0.7,4.84,1.05,5,1C354.7,395.65,347.09,350.71,345,351z"/>
<path class="st0" d="M351.5,297.5c-1,4.67-2,9.33-3,14"/>
<path class="st0" d="M339.5,349.5c-0.62,3.87-1.56,8.26-3,13c-1.51,4.98-3.27,9.32-5,13"/>
<polyline class="st0" points="338,377 317,373 314,389 326,392 "/>
<path class="st0" d="M320.5,380.5c-0.33-0.52-0.96-1.34-2-2c-1.68-1.06-3.37-1.04-4-1"/>
<path class="st0" d="M319.5,383.5c-0.46-0.33-1.13-0.73-2-1c-1.77-0.54-3.31-0.2-4,0"/>
<path class="st0" d="M318.5,387.5c-0.46-0.33-1.13-0.73-2-1c-1.77-0.54-3.31-0.2-4,0"/>
<line class="st0" x1="326.5" y1="377.5" x2="325.5" y2="385.5"/>
<line class="st0" x1="330.5" y1="379.5" x2="329.5" y2="385.5"/>
<line class="st0" x1="335.5" y1="380.5" x2="334.5" y2="386.5"/>
<path class="st0" d="M337.5,393.5c-0.16-0.75-0.77-0.9-1-2c-0.23-1.12,0.21-1.89,0-2c-0.45-0.23-2.59,3.22-3,3
	c-0.26-0.14,0.64-1.61,0-3c-0.05-0.1-0.48-1.03-1-1c-1.05,0.06-1.47,4.05-2,4c-0.31-0.03-0.15-1.4-1-3c-0.52-0.98-1.49-2.18-2-2
	c-0.85,0.3,0.47,4.06-1,5c-0.6,0.39-1-0.13-3,0c-1.22,0.08-2.43,0.16-3,1c-0.44,0.65-0.44,1.67,0,2c0.31,0.23,0.77,0.07,1,0
	c2.22-0.71,3.91-1.25,5-1c1.49,0.34,1.11,1.96,3,3c1.55,0.85,3.53,0.71,5,0C336.12,396.72,337.81,394.92,337.5,393.5z"/>
<polyline class="st0" points="136,343 140,446 207,435 "/>
<line class="st0" x1="260.5" y1="425.5" x2="334.28" y2="412.71"/>
<polyline class="st0" points="396.5,403.5 458.5,392.5 458.5,308.5 "/>
<polyline class="st0" points="452.5,200.5 452.5,130.5 350.5,143.5 "/>
<polyline class="st0" points="225.5,161.5 132.5,173.5 135.5,234.5 "/>
<line class="st0" x1="234.5" y1="299.5" x2="292.28" y2="288.73"/>
<line class="st0" x1="297.5" y1="287.5" x2="340.5" y2="281.5"/>
<polyline class="st0" points="381.5,274.5 404.5,271.5 401.5,191.5 331.5,202.5 "/>
<polyline class="st0" points="258.5,214.5 181.5,225.5 186.5,305.5 199.5,303.5 "/>
<polyline class="st0" points="194.5,332.5 192.5,332.5 197.5,412.5 207.5,410.5 "/>
<path class="st0" d="M256.5,402.5c12.67-1.67,25.33-3.33,38-5c-2-25.67-4-51.33-6-77c-6.67,0.64-13.34,1.27-20.01,1.91"/>
<line class="st0" x1="262.87" y1="323.5" x2="237.5" y2="326.5"/>
<line class="st0" x1="378.5" y1="323.5" x2="423.5" y2="313.5"/>
<line class="st0" x1="383.5" y1="341.5" x2="415.5" y2="334.5"/>
<line class="st0" x1="389.5" y1="363.5" x2="413.5" y2="357.5"/>
<line class="st0" x1="393.5" y1="378.5" x2="405.5" y2="376.5"/>
<path class="st0" d="M117.5,233.5c-8.15,0.49-14.28,2.84-17,4c-2.47,1.06-15.2,6.74-24,21c-8.42,13.64-8.19,26.95-8,33
	c0.16,5.27,0.61,15.72,7,27c2.29,4.04,7.98,13.78,20,20c10.95,5.67,21.05,5.26,26,5c3.74-0.2,14.83-0.91,26-8
	c18.8-11.93,23.18-32.59,24-37c0.26-1.42,5.92-34.91-18-54C138.52,232.54,120.78,233.3,117.5,233.5z"/>
<path class="st0" d="M283.5,95.5c-4.6,0.24-14.96,0.9-26,7c-14.91,8.25-21.61,21.21-24,26c-1.68,3.37-15.11,31.45,0,60
	c2.17,4.1,14.48,26.27,41,32c19.51,4.22,35-2.99,39-5c22.12-11.11,29.19-32.28,31-38c1.98-6.26,7.81-27.96-4-50
	c-2.2-4.1-11.46-20.26-31-28C307.38,98.66,297.22,94.78,283.5,95.5z"/>
<path class="st0" d="M470.5,201.5c-4.66-0.49-14.57-1.39-25,4c-12.27,6.34-17.36,17.3-20,23c-1.83,3.94-8.36,18.58-4,37
	c1.35,5.69,6.5,23.45,24,34c3.86,2.33,15.45,9.08,31,7c16.64-2.23,26.43-13.06,29-16c13.04-14.9,12.3-32.7,12-38
	c-0.25-4.36-1.4-20.21-14-34C500.51,215.23,488.98,203.43,470.5,201.5z"/>
<path class="st0" d="M148.5,241.5c1.8-7.2,5.59-18.45,14-30c6.55-8.99,13.66-15.11,19-19"/>
<path class="st0" d="M346.5,141.5c0.67,0.33,1.33,0.67,2,1s1.33,0.67,2,1"/>
<path class="st0" d="M387.5,162.5c6.75,3.02,15.3,7.71,24,15c13.92,11.66,21.79,24.6,26,33"/>
<path d="M133,175c0,1.11-0.18,1.97-0.22,3.32c-0.05,1.86,0.17,3.25,0.22,3.68c0.89,7.83,1,13,1,13c0.05,2.35-0.05,2.93,0.5,3.5
	c1.59,1.66,6.12,0.48,9,0c0,0,7.87-1.52,27-5c4.8-0.87,2.25-0.18,15-2c17.03-2.43,16.85-3,26-4c4.69-0.51,9.29-1.89,14-2
	c2.65-0.06,4.16,0.08,5-1c1.78-2.27-2.7-5.81-3.5-13.5c-0.55-5.22,0.98-8.75-1-10c-0.25-0.16-0.84-0.46-4,0
	c-2.71,0.39-4.07,0.59-6.5,1.5c-3.37,1.26-10.4,2.25-43,6c-1,0.12-7.17,0.91-19.5,2.5c-3.18,0.41-6.32,1.12-9.5,1.5
	C137.04,173.27,133,173,133,175z"/>
<path class="st1" d="M181.5,192.5c4.98-4.55,10.63-9.29,17-14c9.52-7.05,18.71-12.61,27-17"/>
<path d="M347,144c35-4.33,70-8.67,105-13c0.17,7.02,0.33,14.04,0.5,21.07c-34.83,4.98-69.67,9.96-104.5,14.93
	C347.67,159.33,347.33,151.67,347,144z"/>
<path class="st1" d="M386,162c-4.5-3.13-9.66-6.37-15.5-9.5c-7.16-3.84-13.94-6.76-20-9"/>
<path class="st0" d="M84,319c2.91,3.77,13.01-3.49,37-8c13.95-2.62,20.92-3.94,23-4c5.74-0.18,9.16,0.34,11-2
	c3.04-3.87-1.18-11.74-4-17c-0.63-1.17-6.31-11.55-13-13c-1.39-0.3-3.1-0.67-5,0c-2.1,0.74-2.55,2.1-4,2c-1.67-0.11-1.96-1.96-4-3
	c-2.56-1.31-5.54-0.17-6,0c-4.6,1.74-6.64,7.83-7,12c-0.42,4.92,1.42,8.09,0,9c-1.26,0.81-3.05-1.46-7-2c-3.23-0.44-5.83,0.55-7,1
	c-6.09,2.32-8.81,8.24-11,13C84.14,313.21,82.42,316.96,84,319z"/>
<path class="st0" d="M151,287c1.16-0.53,2.87-1.27,5-2c3.42-1.18,4.33-1.11,5-2c1.32-1.74-0.04-4.78-2-9c-2.83-6.11-4.32-9.32-8-11
	c-3.28-1.5-6.67-1.05-7-1c-3.5,0.51-4.25,2.25-7,2c-2.05-0.19-2.11-1.2-6-3c-3.08-1.42-4.84-2.24-7-2c-2.87,0.32-5.64,2.42-7,5
	c-2.29,4.35,0.24,8.47-2,10c-1.27,0.86-2.34-0.27-5,0c-4.43,0.45-7.38,4.21-8,5c-4.61,5.88-2.21,13.38-2,14"/>
<polyline class="st0" points="131.5,317.5 131.5,298.5 136.5,303.5 "/>
<line class="st0" x1="126.5" y1="303.5" x2="131.5" y2="297.5"/>
<polygon class="st0" points="252,132 252.56,143.47 255,193 320,185 319.15,134.79 319,126 "/>
<line class="st0" x1="255" y1="157" x2="321" y2="149"/>
<line class="st0" x1="255" y1="167" x2="320" y2="159.5"/>
<line class="st0" x1="255" y1="180.06" x2="320" y2="170.57"/>
<line class="st0" x1="267" y1="144" x2="269" y2="187"/>
<line class="st0" x1="281" y1="143" x2="282" y2="185"/>
<line class="st0" x1="295" y1="142" x2="297" y2="182"/>
<line class="st0" x1="307" y1="142" x2="308" y2="182"/>
<line class="st0" x1="252" y1="144" x2="319" y2="135"/>
<line class="st0" x1="447" y1="244" x2="450" y2="281"/>
<line class="st0" x1="487.5" y1="239.5" x2="488.5" y2="279.5"/>
<path class="st0" d="M449.5,280.5c1.49,0.83,3.89,2.03,7,3c10.46,3.27,19.55,1.04,23,0c2.18-0.66,5.39-1.84,9-4"/>
<path class="st0" d="M449.5,268.5c3.71,1.45,8.84,2.88,15,3c6.41,0.13,11.26-1.22,14-2c4.22-1.21,7.6-2.74,10-4"/>
<path class="st0" d="M447.5,255.5c6.09,2.16,11.36,2.81,15,3c2.93,0.15,7.38,0.35,13-1c5.33-1.28,9.39-3.39,12-5"/>
<ellipse transform="matrix(0.9938 -0.1113 0.1113 0.9938 -23.9744 53.4923)" class="st0" cx="467.04" cy="241.44" rx="20.55" ry="4"/>
<ellipse transform="matrix(0.9955 -0.0944 0.0944 0.9955 -16.7626 14.6042)" class="st2" cx="146" cy="184.5" rx="3.5" ry="4"/>
<ellipse transform="matrix(0.9955 -0.0944 0.0944 0.9955 -16.5247 15.6335)" class="st2" cx="157" cy="182.5" rx="3.5" ry="4"/>
<ellipse transform="matrix(0.9955 -0.0944 0.0944 0.9955 -16.2868 16.6628)" class="st2" cx="168" cy="180.5" rx="3.5" ry="4"/>
<path class="st0" d="M237.5,528.5c0-2.33,0-4.67,0-7"/>
<path class="st0" d="M241.5,536.5c-0.4-0.72-1.3-2.58-1-5c0.16-1.33,0.63-2.36,1-3"/>
<path class="st0" d="M237.5,526.5c0.29,0.28,0.98,0.85,2,1c0.39,0.06,0.73,0.04,1,0"/>
</svg>
