<svg id = "designer-icon" xmlns="http://www.w3.org/2000/svg" width="30" height="30"><path d="M 9 15 L 20.5 15" fill="transparent" stroke="hsl(0, 0%, 0%)" stroke-linecap="round"></path><path d="M 17 20 L 15 18 L 13 20" fill="transparent" stroke="hsl(0, 0%, 0%)" stroke-linecap="round" stroke-linejoin="round"></path><path d="M 17 24 L 15 22 L 13 24" fill="transparent" stroke="hsl(0, 0%, 0%)" stroke-linecap="round" stroke-linejoin="round"></path><path d="M 7 20 C 7 20 9.594 17 10.5 15 C 11.406 13 11.039 13.375 12 11.5 C 12.994 9.56 14.344 9.5 15 9.5 C 15.656 9.5 16.987 9.523 18 11.5 C 18.48 12.437 19 15 19 15 C 20.188 17.187 23 20 23 20" fill="transparent" stroke="hsl(0, 0%, 0%)" stroke-linecap="round" stroke-linejoin="round"></path><path d="M 15 7 L 15 9.5" fill="transparent" stroke="hsl(0, 0%, 0%)" stroke-linecap="round"></path></svg>