<?xml version="1.0" encoding="utf-8"?>
<!-- Generator: Adobe Illustrator 23.0.1, SVG Export Plug-In . SVG Version: 6.00 Build 0)  -->
<svg version="1.1" id="Layer_1" xmlns="http://www.w3.org/2000/svg" xmlns:xlink="http://www.w3.org/1999/xlink" x="0px" y="0px"
	 viewBox="0 0 600 600" style="enable-background:new 0 0 600 600;" xml:space="preserve">
<style type="text/css">
	.st0{fill:none;stroke:#000000;stroke-miterlimit:10;}
	.st1{fill:none;}
</style>
<path class="st0" d="M213.5,45.5c0,0-4.3,7-6,14c-0.9,3.6-1.3,5.4-1,7c0.1,0.8,0.4,1.5,0,2c-0.8,1.1-3.2-0.4-6,0c-3,0.4-6.1,2.9-6,5
	c0.1,2.3,4.1,3.9,7,5c20,7.2,44.8,7,47,7c9.6-0.1,10.8-0.7,21-1c1.6,0,6.4-0.2,11-1c2.7-0.5,2.2-0.6,5-1.1c2-0.3,2.7-0.3,3-0.9
	c0.7-1.1-0.5-3.5-2.2-4.9c-2-1.7-3.5-1-4.8-2.1c-2.4-2-0.8-7,0-12c1.4-9.1,2.1-13.6,1-17c-4-12.3-31.1-13.7-36-14
	c-2.8-0.1-14.1-0.6-22,3C217.6,37.7,213.9,44.8,213.5,45.5z"/>
<path class="st0" d="M234.5,37.5c-1.9,1.5-4.5,3.8-7,7c-3,3.9-4.4,7.5-5,9c-1.1,2.9-2.4,6.4-2,11c0.2,2.1,0.6,3.8,1,5"/>
<path class="st0" d="M244.5,42.5c-0.8,1.2-1.9,2.9-3,5c-0.6,1.1-1.4,2.5-2,4c-1.3,3-1.7,5.4-2,7c-0.7,3.5-1.6,8-3,14"/>
<path class="st0" d="M250.5,43.5c0.7,1.9,1.6,4.6,2,8c0.5,3.8,0.3,6.7,0,10c-0.3,3-0.8,7.2-2,12"/>
<path class="st0" d="M263.5,42.5c0.3,2.3,0.6,5.4,1,9c0.9,7.8,1,8.8,1,10c0.1,3.3-0.2,8.1-2,14"/>
<path class="st0" d="M272.5,54.5c-2.9,0.5-6.6,0.9-11,1c-2.6,0.1-8.6,0.1-15-1c-11.1-1.9-20.2-6.5-26-10"/>
<path class="st0" d="M270.5,64.5c-3.7,0.2-7.7,0.3-12,0c-17.1-1.1-30.8-6.9-40-12"/>
<path class="st0" d="M270.5,70.5c-3.4,0.9-7,1.6-11,2c-19.8,2-36-5-45-10"/>
<path class="st0" d="M203.5,79.5c-0.8,14.7,0.7,25.5,2,32c0.8,3.9,1.8,8,5,12c1.1,1.4,5.5,6.6,12,8c8.4,1.9,18.1-2.9,24-12"/>
<path class="st0" d="M208.5,99.5c-0.6,0.7-1.3,1.7-2,3c-0.8,1.6-1.5,3.1-1,4c0.6,1.1,3.1,1.1,6,0"/>
<path d="M249,86"/>
<path d="M249,88c0.1,2.6,0.6,4.6,1,6c0.4,1.2,0.5,1.5,3,7c1.8,4,2.1,4.7,3,5c1.7,0.7,4.2-0.4,5-2c0.3-0.7,0.2-1,0-5
	c-0.1-2.5-0.1-2.7,0-3c0.4-1.6,1.8-3.4,4-4c2.3-0.6,4.8,0.4,6,2c1.9,2.4,0.3,5.8,1,6s2.7-2.7,3-6c0,0,0,0,0-4c0-2,0-3,0-3
	c0-1.9,0.1-1.9,0-2c-0.5-1.2-3.7-1-12,0c-4.4,0.6-7,0.9-11,1c-1.3,0-2.3,0-3,0"/>
<path class="st0" d="M272.5,99.5c-0.9,2.5-2.5,6-6,8c-2.7,1.6-4.5,1.1-6,2c-2.6,1.6-4.1,8.3,1,27"/>
<path class="st0" d="M248.5,160.5c4.7-5.4,8.9-9.3,12-12c4.6-4.1,8.1-6.4,8-10c0-2.1-1.2-4.6-3-5c-2.5-0.6-4,3.9-11,12
	c-3.9,4.4-14.2,15.4-16.5,16.5c-0.1,0.1-0.4,0.2-0.5,0.5c-0.4,0.9,1.7,1.9,3,4c1.5,2.6,1.1,5.4,1,6c-0.2,1.3-0.6,2.4-1,3"/>
<path class="st0" d="M235.5,129.5c1.3,7.7,2.7,15.3,4,23"/>
<path class="st0" d="M250.5,149.5c-5.4,4.5-8.3,4.7-10,4c-1-0.4-1.8-1.2-3-1c-1.8,0.4-2.7,3.1-3,4c-3.2,9.6-4.2,10.4-4.9,12.3
	c-0.8,2-1,3.6-1.1,4.7c-0.3,2.9-1.1,13.9-2,29"/>
<path class="st0" d="M237.5,141.5c-1.5,0.4-4.5,1.3-7,4c-0.7,0.8-1.5,1.6-2,3c-1.3,3.5,1.3,5.7,1,9c-0.2,2.5-1.9,3.3-8,9
	c-5.6,5.2-3.4,3.8-10,10c-5.6,5.3-7.8,6.9-8,10c-0.2,2.6,1.1,4.6,2,6c5.4,8.2,16.9,9.7,20,10"/>
<path class="st0" d="M235.5,149.5c-2,1-4,2-6,3"/>
<path class="st0" d="M255.5,162.5c-5.6,5.8-20.3,21.5-25,31c-0.3,0.7-0.8,1.6-1,3c-0.2,1-0.2,2.8,0.9,5.2
	c2.8,6.5,11.1,13.8,11.1,13.8c7.5,6.7,11.3,10,13,10c5.8,0,10.1-6.5,17-17c4.3-6.4,7.2-12.1,9-16"/>
<path class="st0" d="M268.5,139.5c2.6,2.4,5.3,5.1,8,8c10.9,12,17.7,24.6,22,35"/>
<path class="st0" d="M229.5,200.5c-2.8,1.6-6.4,4.1-10,8c-6.2,6.8-8.4,13.4-11,13c-0.6-0.1-1.1-0.6-3-5c-3-6.9-4-10-4-10
	c-2.2-6.9-3.3-10.3-4-13c-6.5-24.3-8.9-22-9-30c0-5.9,1.2-15.5-2-22c-0.3-0.5-1-2-2-2c-2.6,0.1-4,11.1-6,11c-0.7,0-0.6-1.3-2-2
	c-1.6-0.8-3.7,0-5,1c-0.9,0.8-2.5,2.5-2,4c0.8,2.3,6.1,2.3,6,3c0,0.5-2.6,0.2-5,2c-1.1,0.8-2.4,2.2-2,3c0.5,1.1,3.9,0.5,4,1
	s-3,1.1-3,2c0,0.7,2.2,0.7,4,2c2,1.4,2.4,3.7,3,6c1.4,5.4,1.1,1,4,11c2.6,9,4.5,18.4,5,21c4,19.3,6.9,32.6,17,39
	c1.8,1.1,4.4,2.7,8,3c7.1,0.5,11.7-4.5,22-12c3.9-2.8,9.6-6.7,17-11"/>
<path class="st0" d="M159,109c2.9-0.6,5.5,2.3,8,5c1.4,1.5,4.3,4.8,5,10c0.3,2.4,0.7,5.6-1,7c-2.6,2.1-8.6-0.9-12-4
	c-1.5-1.3-5.3-4.9-5-10C154.2,113.9,155.9,109.7,159,109z"/>
<path class="st0" d="M158,105c5.5-1.4,10.4,2.7,12,4c5.6,4.7,6.7,11.2,7,13c0.3,1.9,1.1,7.3-2,12c-0.8,1.1-1.5,2.3-3,3
	c-4.3,2-9.8-2.3-12-4c-1.8-1.4-7.7-6-9-14c-0.4-2.4-1.2-7.4,2-11C154.8,105.9,157.2,105.2,158,105z"/>
<path class="st0" d="M173.5,138.5"/>
<path class="st0" d="M172.5,136.5c2.7,4,5.3,8,8,12"/>
<path class="st0" d="M165.5,136.5c2,4.3,4,8.7,6,13"/>
<path class="st0" d="M208.5,196.5c-2.7,2-5.3,4-8,6"/>
<path class="st0" d="M186.5,207.5c-9.9-3.9-15.6-9.1-19-13c-8.3-9.6-11-17-11-17c-0.9-2.5-3.3-9.5-8-13c-1.6-1.2-2.5-1.2-3-1
	c-1.5,0.7-1.1,4.4-1,5c0.3,2.7,1.4,3.6,1,4c-1.2,1.3-13.2-5.1-19-7c-0.5-0.1-1.5-0.5-2,0c-0.8,0.8,0.7,3.4,1,4c2.8,5,7.4,6.9,7,8
	c-0.3,0.7-2.5,0-3,1c-0.7,1.4,2.6,4.2,2,5c-0.5,0.6-2.8-0.5-3,0c-0.2,0.4,1.2,1.2,1,2c-0.1,0.5-0.9,0.6-1,1c-0.2,0.8,1.8,1.9,2,2
	c3.9,2.2,3.8,3.6,8,6c5.8,3.2,7.6,1.4,12,4c3.3,2,4,4.1,7,8c6.7,8.8,14.9,13.5,21,17c3.1,1.8,7.4,4,13,6"/>
<path class="st0" d="M211.5,246.5c-2,3.3-4,6.7-6,10"/>
<path class="st0" d="M209.5,268.5c0.2,0.3,2.1,3.6,6,4c3.3,0.3,5.6-1.7,6-2"/>
<path class="st0" d="M223.5,241.5c-1.7,8.7-2,15.4-2,20c0,2.5,0.2,7.9-1,15c-0.4,2.1-0.7,3.8-1,5"/>
<path class="st0" d="M246.5,225.5c0,11,0,22,0,33"/>
<path class="st0" d="M247.5,267.5c-0.4,5.1-0.7,9-1,12c-0.1,0.9-0.3,2.7,0,5c0,0.3,0.4,2.9,1,4c1.6,2.9,8.1,2.2,19,1
	c16.5-1.8,18.4-1.8,24-3c4.9-1,9-2.1,12-3"/>
<path class="st0" d="M302.5,191.5c0.6,2.3,1.6,5.8,3,10c1.5,4.7,2.2,6.2,3,9c0.8,2.9,1.8,7.3,2,13"/>
<path class="st0" d="M103,260c7.6-17.7,16.1-43.7,18-76c0.6-10.2,1.2-33.4-5-62c-1.5-6.7-3.1-12.7-4.8-18.1
	c-0.3-1-4.3-13.8-9.2-24.9c-2.3-5.2-20.4-45.6-32.7-43.2c-4.4,0.9-7.1,10-12.3,28.2c-5.8,20.3-8.8,31.3-6.8,45.7
	c2,13.6,5.9,12.2,5.6,21.6c-0.4,19-16.2,25.2-14.1,41.9c1,8.1,5.6,14.3,7.8,17.2c6.4,8.6,12.6,10.1,20,20.9
	c1.9,2.7,3.8,6.1,5.2,10.4c1.4,4.2,1,5.6,1.8,9.3c2.1,9.2,6.6,10.8,8.7,17.9c1.1,3.6,1.6,9.2-1.3,17"/>
<path class="st0" d="M93,248c1.7-23.1,2.2-49.7,0-79c-3.1-41.4-10.7-77.2-19-106"/>
<path class="st0" d="M101,86c-0.7,3.5-2.2,9.1-6,15c-4.4,6.9-9.8,10.9-13,13"/>
<path class="st0" d="M60,110c2.3,4.8,5.8,10.8,11,17c7.1,8.4,14.6,13.7,20,17"/>
<path class="st0" d="M56.5,176.5c2.4,4.5,7.5,12.5,17,19c6.9,4.8,13.6,6.9,18,8"/>
<path class="st0" d="M112.5,155.5c-1.4,3.3-3.5,7.6-7,12c-3.1,4-6.4,6.9-9,9"/>
<path class="st0" d="M112.5,107.5c3.5-9.6,10-23.2,22-36c11.9-12.7,27.7-23,31.3-19.9c3.4,3-8.2,14.3-3.8,28c2,6.3,6.3,9.9,5.3,16.2
	c-0.7,3.9-3,6.8-4.8,8.6"/>
<path class="st0" d="M162.8,110c-1.7-0.5-2.7-0.2-3.3,0.1c-3.1,1.5-3.9,7.8-1.6,15.8"/>
<path class="st0" d="M155.1,128.2c-1.3,1.8-3.5,4.3-6.5,7.1c-5.3,4.8-7,4.4-9.9,7.7c-4.5,5.2-2.6,8.7-6.6,13.6
	c-1.8,2.2-5,4.9-11,6.5"/>
<path class="st0" d="M128.5,174.5c-0.5,1-1.4,2.6-3,4c-1.9,1.8-3.8,2.6-5,3"/>
<path class="st0" d="M155.5,72.5c-5,6.7-10,13.7-15,21c-8.2,12-15.5,23.7-22,35"/>
<path class="st0" d="M153.5,95.5c-1.6,1.3-3.6,2.7-6,4c-4.1,2.2-8,3.4-11,4"/>
<path class="st0" d="M117.5,100.5c0.4,1.8,1.1,3.8,2,6c1.2,2.9,2.7,5.2,4,7"/>
<path class="st0" d="M137.5,135.5c-2-0.3-5.4-0.9-9-3c-3.5-2-5.7-4.4-7-6"/>
<path class="st0" d="M265.6,244.2c5-0.6,8.8-2,11.4-3.2c5.2-2.4,7-4.7,10-4c2.7,0.6,4.4,3.3,6,6c1.4,2.3,2.2,3.5,2,5
	c-0.1,0.8-0.6,3.2-10,7c-8.8,3.6-13.6,4.5-16,3c-4.9-3-3.9-12.1-4.6-12c-0.9,0.1,0.1,18.5,0.6,23.9c0,0.1,0,0.1,0,0.1
	c0.3,3.9,0.6,5.6,2,7c2.1,2.1,5.8,1.8,13,1c8.2-0.9,10.3-2.4,11-3c0,0,2.5-2,4-6c1.1-2.9,1.4-10.1-1-19"/>
<path class="st1" d="M282,247"/>
<path class="st1" d="M282,250"/>
<path class="st1" d="M278,250"/>
<path class="st0" d="M279,246c0.1-0.1,0.5-0.1,1,0c0.9,0.2,3.2,1.4,3,3c-0.2,1.5-2.4,2.8-4,2c-1.5-0.8-1.5-2.9-1-4
	C278.1,246.8,278.4,246.2,279,246z"/>
<path d="M163.5,279.5c1.5,1.2,4.2,3,8,4c0.9,0.2,5.6,1.4,11,0c1.9-0.5,4.1-1,6.5-2.5c2.1-1.3,3.1-2.4,4-2s0.4,1.9,1,5
	c0.4,2.1,0.8,4.5,2.5,6.5c1,1.2,1.5,1.2,3,3c0.7,0.9,1.4,1.7,2,3c0.5,1.2,0.7,2.5,1,5s0.2,3.5,1,4c0.6,0.4,1.4,0.2,2,0
	c2.1-0.6,2.4-2.2,4.5-3.5c1.4-0.9,1.8-0.4,3-1c2-1,2.4-3,4.5-10.5c1.6-5.6,1.8-6.2,1.5-7.5c-0.8-3.9-4.2-6.3-4.5-6.5
	c-2.2-1.5-3-0.8-4-2c-2.1-2.5,1-6,0-11c-0.5-2.5-1.7-4-4-7c-1.9-2.4-5.2-6.6-11-9c-6-2.5-11.4-1.7-16-1c-3.1,0.4-6.3,0.9-10,3
	c-2,1.1-1.4,1.2-8,6c-3.9,2.9-4.3,3-5,4c-1.2,1.7-1.7,3.5-4,6c-0.4,0.4-0.6,0.7-1,1c-1.6,1.2-3.1,1-4.5,1.5
	c-1.6,0.6-2.4,1.8-3.5,3.5c-1.4,2.1-2.1,4.4-3,13c-0.4,3.3-0.8,8,0.5,12.5c0.3,1.2,0.9,2.6,2,3c1.4,0.5,2.6-1,4.5-0.5
	c1.2,0.4,1.6,1.2,2,1c0.7-0.4,0.3-3.2-0.5-5.5c-0.9-2.6-2-3.8-1.5-4.5c0.4-0.5,1.1-0.2,2.5-0.5c1.5-0.3,2.5-1,4-2c0.5-0.3,2-1.4,5-5
	c0.9-1.1,2.1-2.6,3.5-4.5"/>
<path class="st0" d="M143.5,299.5c-0.9,1.6-3.2,6.5-1.5,11.5c0.4,1.1,1.4,4,3.5,4.5s3.5-1.6,5-1s1.3,3.2,2,6c1.1,4.2,3.7,6.8,8,11
	c3.6,3.5,6,5.8,10,7c4.4,1.3,8.1,0.4,10,0c10.4-2.4,16.7-11.6,17-12c1.8-2.7,4.5-5,5.6-8.1c0.1-0.4,0.5-1.6,1.4-1.9c1-0.3,1.7,1,3,1
	s2.2-1.1,3-2c2.3-2.7,4-7.2,3-12c-0.3-1.3-0.7-2.4-1-3"/>
<path class="st0" d="M171.5,303.5c-0.3,1.1-0.6,3,0,5c0.4,1.1,0.8,2.5,2,3s2.7,0.1,4-1"/>
<path class="st0" d="M167.5,337.5c0.8,2.5,1,4.6,1,6c0,2.2,0,3.7-1,5c-1.2,1.6-3.2,1.9-4,2"/>
<path class="st0" d="M183.5,337.5c-0.9,1.7-1,3.2-1,4c0,2.3,1,4.1,2,6c0.7,1.3,1.5,2.3,2,3"/>
<path d="M162.5,347.5c1.1,0.8,0.6,1.8,2,4c2.1,3.3,6.4,6.3,11,6c3.6-0.2,6.2-2.5,8-4c3.4-2.9,3.2-4.7,5-6c5.4-3.7,18.3,4.9,25,11
	c10.9,10,14.4,21.8,15,25c0.1,0.8,0.4,2.8,1,6c0.8,4,1.1,4.7,1,6c-0.3,3.3-3.2,5.6-5,7c-7.3,5.6-13.6,3.5-15,7c-1,2.7,2.5,4.2,4,11
	c0.6,2.9,0.4,4.4,0,11c-0.3,5.2-0.3,10.3-0.5,15.5c-0.5,15.6-0.1,17.9-2.5,20.5c-1.3,1.4-3.7,3.1-9,5c-1.3,0.5-6.2,2.3-10,4
	c-7.9,3.6-11.6,5.8-12,6c-0.5,0.3-1.6,1.1-3,1c-1.7-0.1-2.8-1.6-3.8-2.6c-0.1-0.1,0.1,0.1-7.6-5.3c-8.2-5.8-7.1-5.1-8.2-5.8
	c-6.1-4-9.1-6-11.9-7.3c-1.3-0.6-2.1-0.9-2.8-1.8c-1.5-1.8-0.7-3.3-0.8-10.1c0-3.8-0.4-8.7-0.4-9.8c-0.1-1.2-0.1-1-0.1-2.7
	c0.1-2.5,0.1-19.4,2.5-26.5c1.2-3.7,1.3-4,1.3-4c1.1-3.2,1.3-3.1,1.2-3.5c-0.4-1.9-3.5-1.7-11.5-5.5c-0.1-0.1-0.3-0.1-0.4-0.2
	c-2.6-1.3-12.9-6.6-13.6-13.8c-0.1-1.1-0.1-3.3,9-14c5.4-6.4,9.4-11,16-16C150.5,351.5,159,345,162.5,347.5z"/>
<path class="st0" d="M126,392c-5.3,10.5-10.8,18.5-15,24c-3.1,4.1-7.4,9.2-14,14c-4.4,3.1-6.6,4.7-10,5c-2.6,0.2-3.9-0.4-14-2
	c-3.7-0.6-5.6-0.8-6,0c-0.3,0.6,0.4,1.6,4,6c1.1,0.7,2.2,1.5,2,2c-0.2,0.6-2.1,0.2-6,0c-5.1-0.2-4.9,0.3-9,0c-2.6-0.2-3.7-0.5-4,0
	c-0.5,0.9,1.5,3.5,4,5c4.9,3,10.9,1.2,11,2c0.1,0.7-5.1,1.9-5,3c0.1,0.5,1.6,0.9,4.6,1.6c0.1,0,0.7,0.2,1.4,0.4c2.9,0.7,4,0.8,4,1
	c0,0.4-5.9,0.1-6,1c-0.1,0.8,4.1,1.7,4,3c-0.1,0.7-1.5,1-1.5,1.5c0,0.7,2.1,1.2,4.5,1.5c8.7,1,16-2,16-2c6.4-2.1,33.2-13.4,51-45
	c2.4-4.3,4.1-8,5-10"/>
<path class="st0" d="M228.5,399.5c3.5,8.4,7.4,14.9,10.5,19.5c8.1,12,12.2,18,18,20c0.8,0.3,5.8,2.9,16,8c0.2,0.1,1,0.5,1,1
	c-0.1,1.1-4.9,1.1-5,2c-0.1,1,5.8,1.8,12,6c2.6,1.8,2.6,2.3,2.5,2.5c-0.5,1.1-9.1-1.5-9.5-0.5c-0.2,0.5,1.4,1.1,2,3
	c0.1,0.4,0.5,1.6,0,2c-0.9,0.8-3.8-1.3-4-1c-0.2,0.4,3.4,2.7,3,4c-0.3,1-2.8,1-4,1c-3.1,0-6.1-0.7-10.5-2.5c-5.1-2.1-5.2-2.9-9-4
	c-3.6-1-4.1-0.5-5.5-1.5c-2.7-2-2-4.7-5-8c-1.4-1.5-2.4-1.9-4-3c-3.9-2.6-5.8-5.6-9-10c-3.6-5.1-8.2-11.2-14-19"/>
<path class="st0" d="M114.5,445.5c2.9,1,7.1,2.6,12,5c4.9,2.4,8.4,4.7,12,7c11.6,7.5,17.4,11.2,20,13c23.2,15.5,21.8,15.4,24,16
	c1.9,0.5,6.5,1.5,8,5c1,2.2,0.4,4.4,0,6c-1,3.9-4,8.2-8,10c-5.7,2.5-9.2-2.2-23-6c-10.1-2.8-10.3-0.8-22-4c-8.4-2.3-14.9-5-19-7
	c-8.1-3.9-13.6-7.7-17-10c-10.5-7.3-13.6-11.8-15-14c-1.5-2.4-2.4-4.5-3-6"/>
<path class="st0" d="M177.5,483.5c12.3-5.3,24.7-10.7,37-16c4.2-0.9,10.4-2.9,18-5c6.5-1.8,7.8-3,11-3c6.7,0,16,3.6,19,12
	c0.2,0.5,2.6,7.4-1,14c-2.9,5.4-8,7.6-18,11c-8.1,2.7-18.9,6-32,9"/>
<path class="st0" d="M192.5,493.5c4.6,2.1,8.3,4.3,11,6c5.6,3.6,6.8,5.2,7,7c0.2,1.7-0.5,3.9-2,5c-2,1.5-3.9-0.2-7,1
	c-2.8,1.1-2.5,2.8-5,4c-3.6,1.7-7.8-0.1-10-1c-5.1-2.2-7.9-6.1-9-8"/>
<path class="st0" d="M182.5,512.5c-6.9,1.5-12.3,3.5-16,5c-6.1,2.5-9.4,4.6-12,3c-1.9-1.2-2.4-3.7-3-8c-0.8-5.1-0.5-9.6,0-13"/>
<path class="st0" d="M150.5,517.5c-2-0.1-7-0.5-11-3c-2.1-1.3-4-3-4-3c-1.4-1.3-1.4-1.5-3-3c-2.1-2-3-2.2-3-3c-0.1-1.5,2.6-2.8,3-3
	c2.1-1,3.5-0.6,6-1c1.5-0.2,3.6-0.7,6-2"/>
<path class="st0" d="M94.5,481.5c-3.9,0.5-10.3,1.8-17,6c-4.7,3-9.4,5.9-10,10c-1.2,8.6,16.5,17.3,22,20c4.9,2.5,16.1,7.5,53,13
	c13.4,2,22.3,3.3,35,4c6.5,0.3,17.3,0.2,39,0c18.1-0.2,22.5-0.4,28-1c11.4-1.2,20.7-3.3,27-5"/>
<path class="st0" d="M256.5,494.5c2.9,0.5,6.3,1.4,10,3c7.6,3.2,12.8,7.7,16,11"/>
<path d="M350,131c3.1-1.1,5.2,2.4,10,4c6.3,2.1,14.6,0.1,19-5c2.2-2.6,4.9-7.7,3-12c-1.5-3.3-5-4.6-6-5c-1.1-0.4-2.8-0.8-12,0
	c-5.5,0.5-6.5,0.8-8,0c-3-1.6-2.3-4.2-5-6c-3.5-2.2-8.4-0.4-12,1c-4.6,1.8-7.3,4.4-10,7c-2.3,2.2-2.8,3.5-3,4c-0.6,1.6-0.3,2.2-1,3
	c-1.1,1.1-2.5,0.4-5,1c0,0-1.7,0.4-4,2c-4.8,3.3-5,12.2-5,14c0,1.1-0.1,8.9,5,16c0.4,0.6,4.2,5.8,6,5c1-0.4,1.5-2.5,1-4
	c-0.3-1-0.8-1.1-1-2c-0.4-1.6,0.6-3.8,2-4c1-0.1,1.9,0.9,2,1c1,1.2,0.3,2.3,1,3c1,1.1,4,0.6,6-1c2-1.7,2.4-4.2,3-8
	c0.7-4.1,0-4.8,1-6c1.8-2.3,4.4-0.7,8-3C348.1,134,347.7,131.8,350,131z"/>
<path class="st0" d="M367.5,134.5c1.6,3.4,3.4,8.4,3.5,14.5c0,0.9,0,4.4-1,9c-1.4,5.9-3.8,10.1-5,12c-3.3,5.1-6.5,10.2-12,12
	c-1.5,0.5-3.9,1-5,3c-0.6,1.2-0.8,3,0,4c1,1.3,3.4,1,4,1c5.1-0.4,11.7,6.6,21,16c12.8,13,19.3,19.5,20,20c3.3,2.2,6.3,3.7,7,7
	c0.8,3.5-2,5-7,14c-4.6,8.3-5.1,12-10,15c-1.7,1-3,2-5,2c-4.2,0-6.7-4.1-11.5-9.5c-3.4-3.8-1.4-0.9-12.5-11.5
	c-4.1-3.9-9.2-8.9-15-15"/>
<path class="st0" d="M322.5,156.5c0.6,0.4,1.4,1,2,2c1.2,1.9,0.5,3.7,1,7c0,0.2,0.3,2.1,1,4c1.2,3.4,3.4,5.5,6,8
	c3.2,3.1,4.8,3.3,6,6c0.9,2.1,1.3,5,0,6c-0.8,0.6-1.9,0.2-3,0c-4.3-0.8-8.2,1.8-10,3c-1.3,0.9-2.9,2.3-7,11c-2.4,5.2-3.6,7.7-5,12
	c-3.7,11.3-4.6,21.2-5,25c-2.7,28.3-4.3,36-5.2,46.9c-0.6,6.7-0.2,6.8-0.8,14.1c-0.4,5.3-0.5,10.7-1,16c-0.5,5.2-0.9,8.1,1,11
	c0.3,0.5,1.5,2.3,5,4c4.8,2.4,8.8,2.1,18,2c12.2-0.1,10.6,0.4,14,0c9.3-1.1,15.6-4.3,17-5c5.5-2.8,8.7-4.4,11-8
	c3.2-4.9,1.4-8.3,2-24c0.3-8.7,0.9-8.3,1-15c0.1-9.7-1-17.6-2-23"/>
<path class="st0" d="M333.5,189.5c1.3,3.4,4.4,5.7,8,6c3.7,0.3,7.3-1.7,9-5"/>
<path class="st0" d="M366.5,154.5c0.9,0.9,2,2.2,3,4c0.9,1.5,1.3,2.3,1,3c-0.5,1.3-3.1,1.5-5,1c-1.5-0.4-2.5-1.4-3-2"/>
<path class="st0" d="M398.6,238c2.6,2.4,7.6,6.2,14.4,7c8.1,0.9,14.1-2.6,25-11c7.2-5.6,19.6-15.1,19-24c0-0.2-0.4-5.5,2-10
	c0.3-0.5,1.2-2.1,2-2c1.1,0.2,1.2,3,2,3s1-2.9,2-3s1.4,2.8,3,3c1,0.1,1.7-0.9,2.5-0.5c0.5,0.2,0.4,0.6,1,1s0.9,0.2,1.5,0.5
	c0.4,0.2,0.7,0.6,1,1c0.5,0.9,1.1,2.3,1,4c-0.2,3.1-3.8,5.9-6,8c-3.3,3.1-3.3,4.7-7.5,11.5c-6.2,10-12.9,17.5-16.5,21.5
	c-8,8.9-14,13.7-17,16c-5.4,4.1-9.7,6.6-15,8c-2.1,0.5-5.7,1.5-10,1c-10.3-1.1-16.7-9.7-18.4-12.1"/>
<path class="st0" d="M457.5,203.5c0-0.3-0.5-2.5-2-3c-0.2-0.1-0.7-0.2-1,0c-0.5,0.4-0.2,1.6,0,3c0.1,0.9,0.2,2.3,0,4"/>
<path class="st0" d="M456.5,205.5c-1.7,2.4-3,3.5-4,4c-0.2,0.1-0.8,0.4-1,1c-0.2,0.7,0.3,1.8,1,2s1.5-0.6,3-2c0.4-0.4,0.8-0.8,1-1"
	/>
<path class="st0" d="M465.5,198.5c0.7-0.7,1.7-1.8,3-3c1.9-1.8,2.5-2,3-2c1.6,0,3.2,1.8,3,3c-0.1,0.6-0.6,0.8-2,2
	c-0.9,0.8-1.6,1.5-2,2"/>
<path d="M472,193c0.4-0.3,1.1-0.8,2-1c0.6-0.2,1.6-0.4,2,0c0.6,0.5,0.2,2.1-1,4"/>
<polyline class="st0" points="382.5,212.5 405.5,123.5 561.5,123.5 514.5,341.5 370.5,338.5 "/>
<polyline class="st0" points="370.5,341.5 519.5,345.5 568.5,129.5 561.5,123.5 "/>
<line class="st0" x1="514.5" y1="341.5" x2="519.5" y2="345.5"/>
<polygon class="st0" points="409.5,149.5 431.5,149.5 425.5,168.5 402.5,168.5 "/>
<polygon class="st0" points="440.5,148.5 432.5,168.5 455.5,169.5 462.5,148.5 "/>
<polygon class="st0" points="400.5,186.5 421.5,186.5 414.5,207.5 391.5,207.5 "/>
<path class="st0" d="M468.5,195.5l6.8-28l1.2-5c17.8-0.6,35.7-1.1,53.5-1.7c-2.7,13.3-5.4,26.6-8.1,40c-16.7-0.4-33.3-0.8-50-1.2"/>
<path class="st0" d="M525.3,167.3c-15.9,0.4-31.9,0.8-47.8,1.2"/>
<path class="st0" d="M478.5,174.5c6.1,0,12.2-0.1,18.2-0.1c-1.2,6.4-2.4,12.7-3.5,19.1c-6.2,0-12.5,0-18.7,0L478.5,174.5z"/>
<line class="st0" x1="500.2" y1="176.5" x2="517.7" y2="176.7"/>
<line class="st0" x1="499.3" y1="183" x2="514.3" y2="183"/>
<line class="st0" x1="498" y1="188.7" x2="512" y2="188.7"/>
<path class="st0" d="M519.5,179.5h11.9c1.6,0,2.8,1.4,2.6,3l-10.1,59.6c-0.2,1.4-1.4,2.4-2.8,2.4h-14.6l3-5v8l-3-3"/>
<path class="st0" d="M463.5,222.5c5.3,0.1,16.2,0.4,21.5,0.5c7.2,0.2,18.6,0.4,25.8,0.6c-4.6,23-9.3,46-13.9,69
	c-16.8-0.8-33.7-1.5-50.5-2.3c4.2-19.3,8.3-38.6,12.5-57.8"/>
<line class="st0" x1="465.5" y1="232.5" x2="494.5" y2="232.5"/>
<line class="st0" x1="463.5" y1="247.5" x2="477.5" y2="247.5"/>
<line class="st0" x1="461.8" y1="256.5" x2="473.8" y2="256.5"/>
<line class="st0" x1="460" y1="263.5" x2="467" y2="263.5"/>
<path class="st0" d="M457.9,269.6c11.1,0.4,22.2,0.9,33.3,1.3c-1.3,5.8-2.5,11.6-3.8,17.4c-11.1-0.7-22.3-1.4-33.4-2
	C455.3,280.8,456.6,275.2,457.9,269.6z"/>
<path class="st0" d="M492.7,243.4c2.8-0.1,5.7,1.5,7,4c2,4.1-1.3,8.9-4,11c-0.8,0.6-4.5,3.5-8,2c-3.2-1.4-3.9-5.3-4-6
	c-0.6-4.3,2.4-7.4,3-8C487.6,245.5,489.6,243.5,492.7,243.4z"/>
<line class="st0" x1="484" y1="398" x2="502.2" y2="345.5"/>
<line class="st0" x1="510" y1="345.5" x2="491" y2="407"/>
<line class="st0" x1="526.5" y1="314.6" x2="534" y2="403"/>
<line class="st0" x1="532" y1="290.6" x2="541" y2="397"/>
<path class="st0" d="M302.5,328.5c-3.8,14.3-4,25.8-3.5,33.5c1.7,25.2,11,46,11,46c1.4,3.2,3.2,6.7,4,12c1.4,8.9-0.9,15.2-3,24
	c-1.5,6.3-3.3,15.5-4,27"/>
<path class="st0" d="M310.5,352.5c1.4,11.9,4.7,21.1,8,28c6.4,13.3,11.8,15.6,16,28c2.1,6.1,2.1,9.7,3,28c0.4,8.1,1,21.2,2,38"/>
<path class="st0" d="M330.5,480.5c2.3-12.3,4.7-24.7,7-37"/>
<path class="st0" d="M365.5,473.5c1.3-4.7,2.7-9.3,4-14"/>
<path class="st0" d="M366.5,323.5c1.1,3.6,2.2,7.6,3,12c1.8,9.4,2.2,17.9,2,25"/>
<path class="st0" d="M379.5,466.5c-1.1-0.4-2.5-1.1-4-2c0,0-2.1-1.3-4-3c-4.9-4.5-9-15-9-15c-5.1-13.2-7.7-19.9-8-21
	c-3.3-11.5-5-17.2-4-25c0.7-5.5,2.4-9.4,4-13c2.7-6,9.1-20.5,25-30c4.8-2.9,16.4-9.9,32-8c3.6,0.4,13.4,1.7,22,9
	c12.9,10.8,14.2,27.2,15,37c1,11.8-1.9,11.3-9,45c0,0-2.8,13.2-10,20c-0.4,0.4-0.8,0.8-0.8,0.8c-0.4,0.4-3.3,2-11.2,6.2"/>
<path class="st0" d="M427.6,462c4.2,1.1,11,3.6,16.9,9.5c1.1,1.1,4.3,4,8,13c5.6,13.7,8.4,25.6,10,33c1.1,5.2,2.4,10.9,3.6,17.8
	c0.1,0.3,0.8,4.7,1.4,9.2c1.8,12.8,2.6,25.5,3,33"/>
<path class="st0" d="M415.5,480.5c-2.1,10.4-4.8,22.5-8,36c-4.5,18.9-6.7,26.5-13,34c-5.1,6.1-10.8,9.8-15,12"/>
<path class="st0" d="M426.9,420.3c-1.6,7.8-4.4,17.6-9.4,28.2c-4,8.5-8.4,15.6-12.4,21.2"/>
<path class="st0" d="M410.5,466.5c-4,2.9-7.6,4.3-10,5c-3.6,1.1-10,3-13,0c-1.8-1.7-1-3.6-3-5c-2.2-1.5-5.3-0.5-7,0
	c-5,1.5-8,4.9-9,6c-7.5,8.3-6.4,11.8-14,22c-2.2,2.9-6.1,7.8-11,13c-1,1-1.8,1.9-2.3,2.5"/>
<path class="st0" d="M412.5,472.5c-1.6,0.4-4.1,1.1-7,2c-3.2,1-5.2,1.7-6,2c-3,1-8,1.5-16-1"/>
<path class="st0" d="M389.5,477.5c-0.9,1.5-2.2,3.9-3,7c-0.4,1.7-0.6,3.1-1,11c-0.4,7.5-0.3,8.2-1,10c-1.7,4.2-3,6-3,6
	c-1,1.4-2,2.4-2,4c0,1.5,0.8,2.7,1,3c0.6,0.8,1.8,2.1,3,2c1.7-0.1,2.9-3.1,4-7c2.7-9,4-13.5,4-19c0-3.2-0.2-5.5,0.2-8.3
	c0.2-1.7,0.6-3,0.8-3.7c0.6-2.1,1.4-3.8,2-5"/>
<path class="st0" d="M402.5,475.5c0.5,2.4,1.4,5.6,3,9s3.5,6.1,5,8"/>
<path class="st0" d="M405.5,474.5c0.3,1.6,1.1,4.2,3,7c1.7,2.5,3.7,4.1,5,5"/>
<path class="st0" d="M360.8,405.8c-0.6,8.5,0,15.6,0.7,20.8c1.2,9,2.2,15.9,7,23c1.9,2.8,5.9,8.6,13,11c0.9,0.3,2.7,0.9,5,1
	c4.9,0.2,8.4-1.7,14-5c4-2.4,9.4-5.7,15-12c3.9-4.4,6.5-8.5,8.1-11.6"/>
<path class="st0" d="M386.5,469.5c0-2.7,0-5.3,0-8"/>
<path class="st0" d="M413.5,446.5c0,3.3,0,6.7,0,10"/>
<path class="st0" d="M377.5,423.5c-0.5,0.8-1.5,2.8-1,5c0.1,0.6,0.3,1.5,1,2c1.1,0.8,3.1,0.5,5-1"/>
<path d="M354.5,390.5c-0.8,3.4-1.2,5.1-1,7c0.1,0.9,0.2,2.3,1,4c0.2,0.4,1,2,2,3c1.2,1.2,3,1.6,9,1c5.1-0.5,8-0.8,12-2
	c3.4-1.1,5.4-1.7,8-3c2.5-1.3,3.3-2,5-2c2.4,0.1,2.9,1.7,6,3c2.8,1.2,5.4,1.1,8,1c5.7-0.2,7.4-2.2,9-1c1.7,1.3-0.2,3.5,1,9
	c1.2,5.6,3.6,5.9,4,11c0.1,0.9,0.1,2.2,1,3c1.2,1,3.5,0.8,5,0c2.9-1.6,3.4-5.8,4-11c0.5-4.9,0.8-7.4,0-10c-1.6-5.3-6.1-7.9-13-12
	c-4.1-2.4-10.4-6-19-7c-3.4-0.4-6.3-0.2-12,0c-5.8,0.3-8.7,0.4-11,1c-3.5,0.9-8.6,3-12,3c-2.9,0-3,0-3,0c-1.6-0.1-2.3-0.4-3,0
	C354.9,388.9,354.7,389.5,354.5,390.5z"/>
<path class="st0" d="M407.1,573.5l-25.6,10L366,512.7c-0.3-1.3-1.4-2.2-2.7-2.2c-21.2-0.8-80.8-1.3-93.1-1.4c-1.1,0-1.9,1.1-1.5,2.1
	l25.8,77.4L383,590l34-11l-5.7-4.9c-0.8-0.7-1.8-0.9-2.8-0.6c-1.6,0.5-3.4,0.9,1.1-1c8.7-3.6,10.5-4.7,12-6c7.2-5.9,9.6-14,13-26
	c1.3-4.7,3-11.5,4-20"/>
<path class="st0" d="M320.5,532.5"/>
<path class="st0" d="M327.5,526.5"/>
<path class="st0" d="M333.5,524.5c-0.4-0.1-0.9-0.2-1,0c-0.5,0.7,4.2,3.3,4,6c-0.1,2.6-4.5,4.2-9,6c-3.8,1.5-9,3.5-10,2
	c-1.1-1.6,2.9-6.3,6-9c3.3-2.8,6.7-4.3,9-5"/>
<path class="st0" d="M310.5,543.5c-2.9,3-3.8,6.7-4,8c-0.3,1.6-1.2,6.9,2,12c2.3,3.7,5.4,5.2,7,6c2.3,1.1,3.4,1.1,4,1
	c1.9-0.3,2.2-1.5,4-2c2.2-0.6,3.3,0.7,6,1c4,0.5,7.4-1.6,8-2c5.1-3.3,5.8-9.5,6-11s0.6-5.9-2-10c-0.7-1.1-2.6-4.1-6-5
	c-1.3-0.3-2.5-0.2-5,0c-2,0.2-3.6,0.5-6,1c-4.2,0.9-4,1.1-5,1c-2.9-0.3-3.8-2.3-6-2C312.3,541.7,311.5,542.5,310.5,543.5z"/>
<line class="st0" x1="246" y1="578.5" x2="290" y2="578.5"/>
<line class="st0" x1="417.5" y1="578.5" x2="555.5" y2="578.5"/>
<path class="st0" d="M55.4,443.5c-10.2,9.2-20.9,17.8-31.9,26"/>
<path class="st0" d="M109.5,333.5C118,376,88,413,58,441.2"/>
<path class="st0" d="M109.5,334.5c-1,3-10.4,2.2-13,2c-5.7-0.5-11.7-1-18-5c-5.4-3.5-13.3-11-11.3-16c1.2-3.1,5.8-4,8.6-4.5
	c9.1-1.8,16.8,2.7,19.1,4.1c0.8,0.5,3.2,2,5.7,4.4c3,2.8,4.6,5.9,8,12C109.5,333.2,109.7,333.8,109.5,334.5z"/>
<path class="st0" d="M153.1,322.2c-10.1,4.1-20.4,8-31.1,10.4"/>
<path class="st0" d="M409.8,63.7C396,61,382,67,369,73c-16,7.4-22.9,21.8-27,29c-34.5,59.9-56.4,108.9-83,142
	c-13.9,17.4-29.4,30.7-31,32c-10.2,8.7-19.4,15-25.8,19.1"/>
<path class="st0" d="M410.1,63.8c-8.8,11.2-13.3,27-4.9,39.6c11.1,16.7,34.4,6.3,38-10.9c0.8-3.9,0.2-7.6-0.1-9.1
	c-2.9-11.1-14-15.4-15.5-16"/>
<path class="st0" d="M584.5,22.5c-21.1,4.8-42.3,8-63.8,10.1c-13.4,1.3-49.9,2.1-74.2,9.9c-10.1,3.3-17.3,7.4-20,9
	c-7.7,4.6-13.3,9.5-17,13"/>
<path class="st0" d="M72.7,460.3C54,481,34,499,10,517c-1,1-2,3-3.5,3.5"/>
<path class="st0" d="M111.5,343.5c-0.7,0.3-1.6,0.7-2.7,1.1c-13.4,4.8-32.2,2.8-44.8-8.6c-9.1-8.2-20-25.5-13-36c8-12,24-10,35-6
	c9,4,17,8,23,16c6.3,7.3,10.7,15.2,13.2,23.5c0,0,3.3,10.5,2.8,23.5c-1.3,32-30.2,72.9-32.8,76.6"/>
<path class="st0" d="M158,330.8c-11.4,3.5-22.7,7.7-34.2,10.7"/>
<path class="st0" d="M322.5,157.7C307,182,294,206,276,230c-20,26-38,52-62.2,73.2"/>
<path class="st0" d="M591.5,48.5C572,55,551,60,530,58c-31-4-63-7-93,6c-12,5-32,11-30,28c1,6,9,9,15,6c5-3,8-7,7-13
	c-2-6-10-8-16.1-8.4"/>
<path class="st0" d="M19.5,356.5"/>
<path class="st0" d="M388.5,82.5"/>
<path class="st0" d="M402.5,76.5c-6.6,0-17.7,0.9-29,7c-14.2,7.6-21.4,19.4-31,35c-4.5,7.3-10.4,18.1-15.7,32.3"/>
<path class="st0" d="M246.5,285.5c-2.4,0.3-5.5,0.4-9,0c-1.9-0.2-3.5-0.6-5-1"/>
<path class="st0" d="M376.3,512.1c-1,1.7-2.3,3.7-4.1,5.7c-1.6,1.9-3.3,3.4-4.7,4.5"/>
<line class="st0" x1="463.5" y1="239.7" x2="484" y2="239.7"/>
<path class="st0" d="M226.1,292.6c-1.9,10.4-3.9,20.9-5.8,31.4c-2.2,12.2-4.3,24.3-6.4,36.4"/>
<path class="st0" d="M261,304c-1.2,14.9-3.3,31.2-6.7,48.7c-4.6,23.6-10.7,44.6-17,62.6"/>
<path class="st0" d="M316.8,304.7"/>
<path class="st0" d="M299.2,346.8c-5.3,16.4-12.1,34-20.8,52.3c-3.4,7.1-6.8,13.9-10.4,20.4"/>
</svg>
